<?xml version="1.0" encoding="utf-8"?>
<!-- Generator: Adobe Illustrator 17.0.0, SVG Export Plug-In . SVG Version: 6.00 Build 0)  -->
<!DOCTYPE svg PUBLIC "-//W3C//DTD SVG 1.1//EN" "http://www.w3.org/Graphics/SVG/1.1/DTD/svg11.dtd">
<svg version="1.1" id="Layer_1" xmlns="http://www.w3.org/2000/svg" xmlns:xlink="http://www.w3.org/1999/xlink" x="0px" y="0px"
	 width="215.418px" height="135px" viewBox="0 0 215.418 135" enable-background="new 0 0 215.418 135" xml:space="preserve">
<g>
	<path fill="#3D96D2" d="M136.948,100.703c-0.875-1.503-1.713-3.03-2.633-4.506c-3.306-5.3-7.729-9.407-13.237-12.337
		c-4.22-2.244-8.726-3.494-13.476-3.894c-0.187-0.016-0.377-0.002-0.637-0.002c0,0.293,0,0.547,0,0.801
		c0,5.123,0.006,10.245-0.011,15.368c-0.001,0.452-0.153,0.903-0.235,1.354c-0.399-0.26-0.857-0.459-1.188-0.788
		c-3.108-3.089-6.193-6.201-9.287-9.304c-5.045-5.06-10.089-10.12-15.138-15.175c-2.088-2.09-4.187-4.17-6.305-6.278
		c0.216-0.227,0.372-0.399,0.536-0.563c10.077-10.105,20.153-20.212,30.24-30.307c0.317-0.317,0.748-0.519,1.127-0.775
		c0.091,0.444,0.259,0.889,0.26,1.333c0.015,5.317,0.006,10.634,0.004,15.951c0,0.084,0.017,0.168,0.031,0.289
		c1.029,0.101,2.05,0.19,3.067,0.305c5.537,0.624,10.625,2.507,15.212,5.658c7.944,5.458,12.9,12.953,14.714,22.436
		c1.249,6.528,0.611,12.934-1.825,19.136c-0.179,0.454-0.466,0.866-0.702,1.297C137.293,100.703,137.12,100.703,136.948,100.703z"/>
</g>
</svg>
