<?xml version="1.0" encoding="utf-8"?>
<!-- Generator: Adobe Illustrator 17.0.0, SVG Export Plug-In . SVG Version: 6.00 Build 0)  -->
<!DOCTYPE svg PUBLIC "-//W3C//DTD SVG 1.1//EN" "http://www.w3.org/Graphics/SVG/1.1/DTD/svg11.dtd">
<svg version="1.1" id="Layer_1" xmlns="http://www.w3.org/2000/svg" xmlns:xlink="http://www.w3.org/1999/xlink" x="0px" y="0px"
	 width="148.595px" height="149.931px" viewBox="0 0 148.595 149.931" enable-background="new 0 0 148.595 149.931"
	 xml:space="preserve">
<path fill="#FFFFFF" d="M140.313,149.931c-1.976-3.394-3.867-6.842-5.944-10.173c-7.464-11.966-17.45-21.239-29.886-27.854
	c-9.527-5.068-19.702-7.89-30.427-8.793c-0.423-0.036-0.851-0.005-1.439-0.005c0,0.662,0,1.236,0,1.81
	c0,11.566,0.014,23.132-0.024,34.697c-0.003,1.02-0.346,2.039-0.531,3.058c-0.901-0.586-1.935-1.037-2.682-1.779
	c-7.017-6.974-13.982-14-20.967-21.006c-11.39-11.424-22.779-22.848-34.178-34.263C9.522,80.904,4.783,76.21,0,71.449
	c0.488-0.513,0.84-0.901,1.21-1.272C23.962,47.361,46.711,24.543,69.485,1.75c0.716-0.716,1.69-1.173,2.544-1.75
	c0.205,1.004,0.585,2.007,0.588,3.011c0.035,12.005,0.013,24.01,0.01,36.015c0,0.19,0.039,0.379,0.069,0.652
	c2.324,0.229,4.628,0.429,6.926,0.688c12.501,1.408,23.989,5.661,34.345,12.776c17.936,12.323,29.126,29.245,33.222,50.657
	c2.819,14.738,1.38,29.203-4.121,43.204c-0.403,1.026-1.052,1.955-1.586,2.929C141.092,149.931,140.702,149.931,140.313,149.931z"/>
</svg>
