<?xml version="1.0" encoding="utf-8"?>
<!-- Generator: Adobe Illustrator 17.0.0, SVG Export Plug-In . SVG Version: 6.00 Build 0)  -->
<!DOCTYPE svg PUBLIC "-//W3C//DTD SVG 1.1//EN" "http://www.w3.org/Graphics/SVG/1.1/DTD/svg11.dtd">
<svg version="1.1" id="Layer_1" xmlns="http://www.w3.org/2000/svg" xmlns:xlink="http://www.w3.org/1999/xlink" x="0px" y="0px"
	 width="137.585px" height="91.089px" viewBox="0 0 137.585 91.089" enable-background="new 0 0 137.585 91.089"
	 xml:space="preserve">
<g>
	<path fill="#FFFFFF" d="M68.609,91.05c-22.133,0-44.267-0.02-66.4,0.039C0.493,91.094-0.003,90.687,0,88.921
		C0.056,59.969,0.056,31.018,0,2.066C-0.003,0.356,0.517-0.001,2.124,0c44.447,0.041,88.895,0.041,133.342,0
		c1.615-0.001,2.122,0.369,2.118,2.072c-0.055,29.012-0.054,58.024-0.001,87.036c0.003,1.642-0.488,1.979-2.033,1.976
		C113.237,91.035,90.923,91.05,68.609,91.05z M68.709,84.908c20.449,0,40.898-0.018,61.347,0.035
		c1.625,0.004,2.117-0.385,2.113-2.076c-0.056-24.918-0.055-49.837,0.002-74.755c0.004-1.646-0.496-1.973-2.037-1.971
		C89.236,6.181,48.338,6.182,7.44,6.139C5.878,6.138,5.412,6.498,5.416,8.125C5.47,33.043,5.472,57.962,5.413,82.88
		c-0.004,1.717,0.529,2.066,2.129,2.062C27.931,84.892,48.32,84.909,68.709,84.908z"/>
	<path fill="#FFFFFF" d="M8.041,80.21c1.031-2.174,2.597-3.996,3.967-5.939c3.45-4.892,6.995-9.716,10.496-14.571
		c4.642-6.436,9.283-12.872,13.917-19.313c3.881-5.395,7.758-10.794,11.624-16.199c1.126-1.575,1.605-1.68,2.404-0.152
		c1.447,2.766,3.569,5.051,5.351,7.559c2.879,4.052,5.842,8.061,8.8,12.066c4.171,5.649,8.226,11.384,12.299,17.105
		c0.533,0.749,0.816,0.802,1.444,0.072c2.441-2.837,4.952-5.614,7.435-8.415c2.998-3.382,6-6.762,8.989-10.152
		c0.805-0.912,1.007-1.097,2.167,0.103c3.042,3.148,5.795,6.537,8.739,9.761c2.869,3.141,5.528,6.476,8.437,9.578
		c2.979,3.176,5.82,6.469,8.707,9.725c2.377,2.681,4.777,5.343,7.166,8.013c-0.157,1.161-1.076,0.749-1.696,0.749
		C88.205,80.216,48.123,80.212,8.041,80.21z"/>
</g>
</svg>
