<?xml version="1.0" encoding="utf-8"?>
<!-- Generator: Adobe Illustrator 17.0.0, SVG Export Plug-In . SVG Version: 6.00 Build 0)  -->
<!DOCTYPE svg PUBLIC "-//W3C//DTD SVG 1.1//EN" "http://www.w3.org/Graphics/SVG/1.1/DTD/svg11.dtd">
<svg version="1.1" id="Layer_1" xmlns="http://www.w3.org/2000/svg" xmlns:xlink="http://www.w3.org/1999/xlink" x="0px" y="0px"
	 width="216px" height="125px" viewBox="0 0 216 125" enable-background="new 0 0 216 125" xml:space="preserve">
<path fill="#FFFFFF" d="M108,22.644c-22.84,0-41.355,15.465-41.355,34.543c0,10.42,5.532,19.755,14.267,26.089l-4.354,19.08
	L94.64,89.877c4.192,1.195,8.683,1.853,13.36,1.853c22.84,0,41.355-15.465,41.355-34.543C149.355,38.11,130.84,22.644,108,22.644z
	 M111.446,78.72h-6.256V42.345h6.256V78.72z M108.317,39.548c-2.126,0-3.85-1.481-3.85-3.307c0-1.826,1.724-3.307,3.85-3.307
	c2.127,0,3.85,1.481,3.85,3.307C112.167,38.067,110.444,39.548,108.317,39.548z"/>
</svg>
