<?xml version="1.0" encoding="utf-8"?>
<!-- Generator: Adobe Illustrator 17.0.0, SVG Export Plug-In . SVG Version: 6.00 Build 0)  -->
<!DOCTYPE svg PUBLIC "-//W3C//DTD SVG 1.1//EN" "http://www.w3.org/Graphics/SVG/1.1/DTD/svg11.dtd">
<svg version="1.1" id="Layer_1" xmlns="http://www.w3.org/2000/svg" xmlns:xlink="http://www.w3.org/1999/xlink" x="0px" y="0px"
	 width="216px" height="125px" viewBox="0 0 216 125" enable-background="new 0 0 216 125" xml:space="preserve">
<g>
	<g>
		<path fill="#FFFFFF" d="M113.583,24.252c-1.624,13.442-7.376,25.594-11.997,38.094c-0.223,0.603-1.644,1.269-2.312,1.105
			c-1.779-0.434-3.452-1.306-5.606-2.182c5.795-12.994,10.343-26.188,18.819-37.463C112.852,23.955,113.218,24.103,113.583,24.252z"
			/>
		<path fill="#FFFFFF" d="M104.801,65.112c0.728-2.281,1.371-4.444,2.108-6.575c1.392-4.023,8.368-6.275,13.018-4.237
			c10.748,4.709,16.655,17.496,13.992,29.611c-3.988,18.141-20.052,19.793-31.623,14.942c-3.395-1.423-6.457-3.679-9.574-5.703
			c-0.793-0.515-1.893-1.95-1.681-2.367c0.704-1.384,1.706-3.064,3.018-3.609c4.069-1.688,4.965-3.026,3.865-7.357
			c-0.647-2.547,1.91-5.476,4.513-5.27c2.228,0.176,4.505,0.035,5.588-2.316c1.012-2.198-0.148-3.974-1.686-5.523
			C105.791,66.156,105.259,65.588,104.801,65.112z M124.472,76.217c-2.377-1.211-5.268-0.218-6.465,2.221
			c-1.285,2.619-0.351,5.59,2.133,6.782c2.375,1.14,5.282,0.124,6.513-2.277C127.976,80.363,127.059,77.535,124.472,76.217z
			 M123.184,66.982c1.201-2.542,0.264-5.116-2.331-6.402c-2.571-1.274-5.173-0.399-6.428,2.161c-1.311,2.675-0.346,5.45,2.313,6.647
			C119.212,70.503,122.015,69.456,123.184,66.982z M113.274,93.195c1.217-2.465,0.288-5.302-2.142-6.538
			c-2.619-1.333-5.434-0.368-6.677,2.289c-1.17,2.5-0.182,5.256,2.319,6.468C109.264,96.62,112.053,95.669,113.274,93.195z"/>
		<path fill="#FFFFFF" d="M82.27,94.5c-1.686-4.968-0.719-9.433,2.306-13.391c0.713-0.933,2.419-1.598,3.634-1.549
			c2.108,0.086,2.438,1.946,2.413,3.725c-0.043,3.054-1.46,5.467-3.678,7.43C85.478,92.012,83.903,93.186,82.27,94.5z"/>
		<path fill="#FFFFFF" d="M92.758,63.126c2.532,1.03,4.508,1.834,6.997,2.847c-2.565,4.204-5.002,8.266-7.551,12.256
			c-0.213,0.334-1.302,0.424-1.766,0.192c-0.443-0.221-0.93-1.083-0.832-1.542C90.561,72.397,91.635,67.941,92.758,63.126z"/>
	</g>
</g>
</svg>
