<?xml version="1.0" encoding="utf-8"?>
<!-- Generator: Adobe Illustrator 17.0.0, SVG Export Plug-In . SVG Version: 6.00 Build 0)  -->
<!DOCTYPE svg PUBLIC "-//W3C//DTD SVG 1.1//EN" "http://www.w3.org/Graphics/SVG/1.1/DTD/svg11.dtd">
<svg version="1.1" id="Layer_1" xmlns="http://www.w3.org/2000/svg" xmlns:xlink="http://www.w3.org/1999/xlink" x="0px" y="0px"
	 width="216px" height="125px" viewBox="0 0 216 125" enable-background="new 0 0 216 125" xml:space="preserve">
<g>
	<path fill="#FFFFFF" d="M107.212,102.522c-0.863-1.726-1.669-3.324-2.463-4.928c-4.042-8.17-8.073-16.346-12.14-24.503
		c-0.29-0.581-0.773-1.115-1.281-1.529c-7.688-6.263-11.371-14.3-10.539-24.221c1.07-12.754,10.828-22.867,23.562-24.608
		c14.712-2.011,28.446,8.145,30.619,22.819c1.528,10.318-1.899,18.855-9.827,25.615c-0.53,0.452-1.022,1.012-1.361,1.618
		c-5.342,9.562-10.655,19.14-15.976,28.714C107.639,101.801,107.459,102.098,107.212,102.522z M92.17,49.778
		c-0.033,8.734,6.99,15.949,15.762,15.916c9.552-0.036,15.915-7.804,15.894-15.796c-0.023-8.675-7.029-15.886-15.559-15.912
		C99.309,33.957,92.203,40.929,92.17,49.778z"/>
</g>
</svg>
