<?xml version="1.0" encoding="utf-8"?>
<!-- Generator: Adobe Illustrator 17.0.0, SVG Export Plug-In . SVG Version: 6.00 Build 0)  -->
<!DOCTYPE svg PUBLIC "-//W3C//DTD SVG 1.1//EN" "http://www.w3.org/Graphics/SVG/1.1/DTD/svg11.dtd">
<svg version="1.1" id="Layer_1" xmlns="http://www.w3.org/2000/svg" xmlns:xlink="http://www.w3.org/1999/xlink" x="0px" y="0px"
	 width="216px" height="125px" viewBox="0 0 216 125" enable-background="new 0 0 216 125" xml:space="preserve">
<g>
	<path fill="#FFFFFF" d="M143.989,34.928c0,2.78-1.629,5.033-3.638,5.033H75.649c-2.009,0-3.638-2.253-3.638-5.033l0,0
		c0-2.78,1.629-5.033,3.638-5.033h64.701C142.36,29.895,143.989,32.149,143.989,34.928L143.989,34.928z"/>
	<path fill="#FFFFFF" d="M143.989,62.5c0,2.78-1.629,5.033-3.638,5.033H75.649c-2.009,0-3.638-2.253-3.638-5.033l0,0
		c0-2.78,1.629-5.033,3.638-5.033h64.701C142.36,57.467,143.989,59.72,143.989,62.5L143.989,62.5z"/>
	<path fill="#FFFFFF" d="M143.989,90.072c0,2.78-1.629,5.033-3.638,5.033H75.649c-2.009,0-3.638-2.253-3.638-5.033l0,0
		c0-2.78,1.629-5.033,3.638-5.033h64.701C142.36,85.039,143.989,87.292,143.989,90.072L143.989,90.072z"/>
</g>
</svg>
