<?xml version="1.0" encoding="utf-8"?>
<!-- Generator: Adobe Illustrator 17.0.0, SVG Export Plug-In . SVG Version: 6.00 Build 0)  -->
<!DOCTYPE svg PUBLIC "-//W3C//DTD SVG 1.1//EN" "http://www.w3.org/Graphics/SVG/1.1/DTD/svg11.dtd">
<svg version="1.1" id="Layer_1" xmlns="http://www.w3.org/2000/svg" xmlns:xlink="http://www.w3.org/1999/xlink" x="0px" y="0px"
	 width="101.778px" height="98.088px" viewBox="0 0 101.778 98.088" enable-background="new 0 0 101.778 98.088"
	 xml:space="preserve">
<path fill="#FFFFFF" d="M50.889,0C22.783,0,0,19.031,0,42.506c0,12.823,6.807,24.31,17.556,32.103l-5.358,23.478l22.251-15.356
	c5.159,1.471,10.685,2.28,16.44,2.28c28.106,0,50.889-19.031,50.889-42.506C101.778,19.031,78.994,0,50.889,0z M55.129,69.004
	h-7.698V24.242h7.698V69.004z M51.279,20.8c-2.616,0-4.737-1.822-4.737-4.069c0-2.247,2.121-4.069,4.737-4.069
	c2.617,0,4.738,1.822,4.738,4.069C56.017,18.978,53.896,20.8,51.279,20.8z"/>
</svg>
