<?xml version="1.0" encoding="utf-8"?>
<!-- Generator: Adobe Illustrator 17.0.0, SVG Export Plug-In . SVG Version: 6.00 Build 0)  -->
<!DOCTYPE svg PUBLIC "-//W3C//DTD SVG 1.1//EN" "http://www.w3.org/Graphics/SVG/1.1/DTD/svg11.dtd">
<svg version="1.1" id="Layer_1" xmlns="http://www.w3.org/2000/svg" xmlns:xlink="http://www.w3.org/1999/xlink" x="0px" y="0px"
	 width="237.938px" height="255.645px" viewBox="0 0 237.938 255.645" enable-background="new 0 0 237.938 255.645"
	 xml:space="preserve">
<g>
	<path fill="#F8AA34" d="M118.791,52.931c43.623,0.398,75.978,34.054,75.219,78.242c-0.715,41.628-34.983,74.303-77.551,73.946
		c-41.669-0.35-76.505-35.433-75.711-76.247C41.602,84.98,74.95,52.531,118.791,52.931z"/>
	<g>
		<path fill="#F8AA34" d="M0.425,88.941c13.797-1.785,27.594-3.569,43.282-5.598c-1.935,13.207-10.142,23.161-8.88,37.796
			C18.275,114.693,10.561,101.948,0.425,88.941z"/>
		<path fill="#F8AA34" d="M84.279,49.683C73.02,57.98,63.416,65.058,51.248,74.025c-3.068-15.638-5.8-29.565-9.019-45.977
			C58.963,32.258,70.295,41.343,84.279,49.683z"/>
		<path fill="#F8AA34" d="M150.901,49.65c4.359-3.055,7.063-5.356,10.116-7.013c9.215-5.004,18.566-9.757,29.421-15.421
			c-0.265,16.464-3.643,30.486-7.93,45.913C171.847,65.209,162.426,58.212,150.901,49.65z"/>
		<path fill="#F8AA34" d="M42.882,172.974c-14.441,0.13-28.688,0.497-42.882-5.508c0.76-1.776,1.075-3.871,2.274-5.112
			C30.676,132.957,30.693,132.974,42.882,172.974z"/>
		<path fill="#F8AA34" d="M117.616,0c7.859,17.899,13.706,31.217,21.024,47.883c-15.084-4.707-27.423-4.102-42.232-1.009
			C103.585,31.01,109.583,17.754,117.616,0z"/>
		<path fill="#F8AA34" d="M116.496,255.645c-7.197-15.687-13.149-28.662-19.705-42.952c14.245,0,26.029,0,38.846,0
			C132.878,228.054,125.772,240.391,116.496,255.645z"/>
		<path fill="#F8AA34" d="M48.741,183.06c14.467,10.296,24.09,17.145,36.266,25.811c-14.164,7.95-26.52,14.885-39.856,22.371
			C41.736,214.596,51.299,201.898,48.741,183.06z"/>
		<path fill="#F8AA34" d="M202.918,122.528c-4.387-14.229-7.846-25.444-11.692-37.918c15.3,1.223,29.139,2.329,45.298,3.621
			C227.84,102.943,215.561,111.341,202.918,122.528z"/>
		<path fill="#F8AA34" d="M237.937,166.153c-16.506,7.356-30.567,6.763-45.616,6.676c0.602-12.993,10.83-22.469,6.483-36.708
			C216.167,142.916,223.536,156.74,237.937,166.153z"/>
		<path fill="#F8AA34" d="M149.913,209.191c10.727-7.934,20.25-14.976,31.19-23.068c8.759,12.84,5.995,27.875,12.699,46.434
			C176.06,223.112,163.482,216.415,149.913,209.191z"/>
	</g>
</g>
</svg>
