<?xml version="1.0" encoding="utf-8"?>
<!-- Generator: Adobe Illustrator 17.0.0, SVG Export Plug-In . SVG Version: 6.00 Build 0)  -->
<!DOCTYPE svg PUBLIC "-//W3C//DTD SVG 1.1//EN" "http://www.w3.org/Graphics/SVG/1.1/DTD/svg11.dtd">
<svg version="1.1" xmlns="http://www.w3.org/2000/svg" xmlns:xlink="http://www.w3.org/1999/xlink" x="0px" y="0px"
	 width="1203px" height="832px" viewBox="0 0 2903.901 2009.189" enable-background="new 0 0 2903.901 2009.189"
	 xml:space="preserve">
<g id="Layer_2">
	<g>
		<path fill="#FFD453" d="M1239.333,308.908c0,0,6.5-6.833,17.5,0c7.667,8.5,44.667,51.5,44.667,51.5l57.833,47.333
			c0,0,3,3,1.333,9.833c0,0-1.667,4.333-6,7c-4.333,2.667-59.167,30.833-59.167,30.833l-140.333,73.333L1083,475.408l36-48.333
			l29.5-29.167L1239.333,308.908z"/>
		<path fill="#FFD453" d="M1078.5,482.158l68,51.083L1001,604.408c0,0-3.5-12.833,2.5-21.167
			C1009.5,574.908,1078.5,482.158,1078.5,482.158z"/>
		<path fill="#FFD453" d="M971.667,626.242l17.5-24.333l6.333,25.5C995.5,627.408,978.833,623.908,971.667,626.242z"/>
		<polygon fill="#FFD453" points="1369,413.908 1372.833,417.306 1369,418.742 		"/>
		<path fill="#FFD453" d="M1163.333,534.242l127.833-67.5l70.004-36.333c0,0,16.663-8.333,24.329-6.5s14.167,3,16.333,3
			c2.167,0,100,13.333,100,13.333l89.833,11c0,0,67.833,14.833,73.667,19.167c-3.167,7.5-52.833,124.5-52.833,124.5l-37.167,82.333
			L1464,636.575c0,0-58.5-21.5-93-30.333c0,0-39.5-12-67-19.167c-27.5-6.833-84.833-21.333-84.833-21.333L1163.333,534.242z"/>
		<path fill="#FFD453" d="M1154.333,538.408l58.833,34.167l68.5,17.333c0,0,51.333,12.667,59.833,15.833
			c-0.84-0.297,112,34.833,131.833,43.333c21.167,7.167,97.667,35.667,97.667,35.667s-23.5,48-27.167,53.833
			c-3.667,6.833-19.167,32.833-19.167,32.833l-30.167,44l-17.833,25.833l-120.833-56.5c0,0-0.833-1-0.167-2.833
			c0.667-1.917,27.75-72.5,27.75-72.5s1.833-5.417-2.083-7.083c0,0-3.833-1.417-6.333,4.167c-2.167,5.833-27.667,73.75-27.667,73.75
			s-0.583,0.583-2.417,0.167c-2.667-0.917-60.917-25.5-60.917-25.5s-99.25-40.875-123.5-53l-111.125-51.375
			c0,0-29.042-12.958-34.708-16.792c-5.167-4.833-11.667-12.5-11-21c7.667-3.667,29.833-14.833,29.833-14.833s30-14.167,44.5-21.667
			S1154.333,538.408,1154.333,538.408z"/>
		<path fill="#FFD453" d="M1401,413.075l81.667-42.167c0,0,34-14.5,39.333-32.333c0,0,12.5,23.5,24.167,41.167
			c0,0,18.333,25.333,51.333,47.167l35.833,20.167c0,0-30.167-6.833-44-9.5c-13.667-1.667-106.167-14.5-114.833-14.833
			C1474.5,422.742,1415,413.742,1401,413.075z"/>
		<path fill="#FFD453" d="M917.833,698.908L959,645.742c0,0,13.5-11,26-8.833c0,0,9,1,27.5,9.333c18.5,8.333,108,50.333,108,50.333
			l72,33.333c0,0-35.5,76-39.5,81.875c-8.375-2.625-80.625-28.25-80.625-28.25s-70.375-36.125-84.125-45
			C971.25,728.908,917.833,698.908,917.833,698.908z"/>
		<path fill="#FFD453" d="M867.25,772.408l45.625-66.75l77.625,43.625l75.167,39.792c0,0,74,28.667,84.5,30.333
			c-3.167,5.667-37.667,74.667-37.667,74.667l-97.833-45.667c0,0-66-33-80.5-41C919,799.575,867.25,772.408,867.25,772.408z"/>
		<path fill="#FFD453" d="M862.5,779.658l128.5,66.75c0,0-0.125,2.5-0.875,3.375c-1.125,2-53.625,92.792-53.625,92.792
			s-125.5-84.333-126.833-85.5C814,851.408,862.5,779.658,862.5,779.658z"/>
		<polygon fill="#FFD453" points="805.25,864.033 885.25,918.283 932.375,949.783 911.375,987.408 820.875,925.721 781.5,898.533 		
			"/>
		<path fill="#FFD453" d="M776.5,905.742l130.833,89.333l-37.667,59.167L740,956.742C740,956.742,770.833,915.908,776.5,905.742z"/>
		<path fill="#FFD453" d="M735.25,964.158l129,96c0,0-0.125,0.375-0.875,1.25c-0.875,0.875-49.542,43-49.542,43l-34.75-28.75
			l-78.417-65.75C700.667,1009.908,734.917,965.158,735.25,964.158z"/>
		<path fill="#FFD453" d="M672.125,1039.908l22.875-23.75c3.5,3.5,50.667,42.583,50.667,42.583l62,51.833l-57.042,53.583l-33.25-37
			c0,0-41.5-46.125-46.125-55.25C671.25,1071.908,660.75,1056.033,672.125,1039.908z"/>
		<path fill="#FFD453" d="M1673.167,473.908c0,0,58.333,24.333,61.167,25.333c3.167,1,72.333,27.167,72.333,27.167
			s40.333,14.333,88.833,40.5c49.833,25.5,74.5,38.333,74.5,38.333s8,12.5,1.5,31.5c-9,17.5-10.667,19.333-10.667,19.333
			l-53.167,83.667l-50.833,76.5L1835,850.075c0,0-65.667-44.833-74-49.833c0,0-6.25-3.75-1.25-10.75
			c4.833-8.083,11.5-19.75,11.5-19.75s1.167-3.917-1.917-5.667c-3.083-1.75-77.208-37.042-77.208-37.042s-47-21.75-59.5-27.5
			c-13.75-5.5-49.25-19.75-49.25-19.75l22-49l22-48c0,0,0.542-1.375,1.875-0.708c1.667,0.667,76.25,32.917,76.25,32.917
			s4.5,2,6.25-1.5c0,0,1-4.667-2.5-6.333c-3.75-1.667-76.75-32.833-76.75-32.833s-1.063-0.417-0.75-1.479
			s14.917-35.688,20.667-49.604C1658.167,509.325,1673.167,473.908,1673.167,473.908z"/>
		<path fill="#FFD453" d="M1580.875,688.158l41.75,16.625c0,0,1.125,0.5,0,2.75s-25.75,57.625-26.875,59.625
			c-1.125,2.375-11.625,23.5-11.625,23.5s-3.542,6.583-9.208,11.25c0,0-4.5,8.167,6.583,5.25c0,0,7.667-5.583,12.333-15.667
			c4.667-10.083,29.292-63.917,29.292-63.917l7.875-17.5c0,0,0.25-1.5,1.833-0.833c1.583,0.667,53.417,25.167,53.417,25.167
			l-53.417,91c0,0-8.667,10.667-15.5,18.667c-7.5,8-32.333,33.833-32.333,33.833l-16.625,15.875c0,0-0.875,0.5-2.875-0.75
			c-2.625-1.25-41.125-27.25-53.375-34.125c-13.25-7.25-27.875-14.125-27.875-14.125s25.125-35.875,26.625-37.875
			s22.875-35.125,24.125-35.875c2-2.625,25.75-46.25,25.75-46.25l18.125-35.875C1578.875,688.908,1579.7,687.69,1580.875,688.158z"
			/>
		<path fill="#FFD453" d="M1693,739.325c0,0,0.333-1.833,4.583,0c4.083,2.5,62.854,29.958,62.854,29.958s1,0.5,0.344,1.75
			s-13.906,24.313-13.906,24.313s-1.458,3.229,0.083,4.604c1.542,1.375,19.104,14.021,19.104,14.021l-37.813,63.688l-55-33.083
			l-30.5-18.917l29.667-50.917L1693,739.325z"/>
		<path fill="#FFD453" d="M1773.333,819.242l56.75,38.5l-34.917,47.75c0,0-11.329-2.167-16.456,8.667
			c-13.21-9.917-43.044-31.083-43.044-31.083s-0.833-0.583,0-2c0.833-1.417,36.667-61.333,36.667-61.333
			S1772.834,818.903,1773.333,819.242z"/>
		<path fill="#FFD453" d="M1637.917,833.242l43.75,26.25c0,0,45.958,28.917,55.833,35.292c9.375,7.125,36.25,26.125,36.25,26.125
			s0.438,0.5,0,1.625c-0.5,1.125-31.563,50.063-31.563,50.063s-5.188,7.375,1.313,15.063c-3.563,6.313-24,41.25-24,41.25
			l-48.375-43.25l-53-47.5l-44.25-38.5c0,0,21.75-20.25,23.5-22S1636.208,836.575,1637.917,833.242z"/>
		<path fill="#FFD453" d="M1755.75,493.158c0,0,14.25-3,29.75-10.5c0,0-4.5,14,0,21.5
			C1768.25,497.408,1755.75,493.158,1755.75,493.158z"/>
		<path fill="#FFD453" d="M1814,462.408c0,0,17.5-15.75,26.75-18.75c0,0,9.5-4.75,21.5,0s69,25.5,85.5,34
			c17.75,8,53.75,24.5,74.5,31c0,0,9.833,3.083,14.5,11.167c0,0,1.562,7.667-1.011,11.667c-2.823,3.917-37.864,53.542-37.864,53.542
			s-9.909,14.125-23.83,6.875c-14.17-7.375-101.795-51.5-101.795-51.5l-40.5-18.875c0,0-26.375-15.125-25.75-15
			s-10.25-6.5-8.375-14.125c0,0-0.375-6,3.875-12.375L1814,462.408z"/>
		<path fill="#FFD453" d="M2052.125,532.158c0,0,5.5-8.375,18.375-4.375c12.5,4.5,50.875,19.125,50.875,19.125l77,31.25
			c0,0,1.375,0.625,0,2.75s-21,31.375-21,31.375l-41.875,62.75l-33.625,50.875c0,0-0.958,0.667-3.292-0.667
			c-2.333-1.333-96.958-61.833-96.958-61.833l-22.125-14.375c0,0-0.75-0.625,0-2.708c1.667-2.833,9.5-18.417,9.5-18.417
			l16.333-31.083c0,0,0.208-0.667,1.458-0.292c1.542,0.708,40.208,19.5,40.208,19.5s4.625,1.563,6.688-1.313
			c0,0,1.438-4.25-3.125-6.563s-38.438-18.563-38.438-18.563s-0.813-0.188,0-1.563c0.938-1.313,14.313-19.625,14.313-19.625
			L2052.125,532.158z"/>
		<path fill="#FFD453" d="M2206.5,583.658c0,0,1.25-2.25,3.75-1s74.625,30,74.625,30s1.063,0.5,0.313,1.875
			s-44.521,72.708-44.521,72.708l-28.333,40.5L2180,774.908l-71.167-43.333l12.667-19.417l38.667-58.917l36.978-54.5L2206.5,583.658
			z"/>
		<path fill="#FFD453" d="M2293.75,616.158l77.375,29.125l73.625,28.875l102.25,46.5c0,0-7.625,14.125,4.125,27.375
			c-5.875,11.125-12.875,24.25-12.875,24.25l-10.75,13.125l-31.375,30.25l-53,43.125l-13.5-31.875c0,0-13.25-31.125-15-33.625
			c0,0-11.25-18.125-20.375-26.125s-35-27.625-35-27.625L2320,717.908l-64.375-35.5c0,0-0.958-1.333,0-2.75
			s20.708-33.917,20.708-33.917L2293.75,616.158z"/>
		<path fill="#FFD453" d="M2249,690.158c0,0,1.125-1.25,2.75,0s30.5,16.75,30.5,16.75l49.25,27.625c0,0,28,15.125,40.125,25.25
			c0,0,23.875,19,32.625,32.75c7.5,14.25,17.125,36.125,17.125,36.125l14.25,35.75l-53.375,45.625c0,0-0.938,0.25-2.438-0.563
			c-1.75-1.375-38.396-27.729-38.396-27.729L2308,858.075l-38.833-25.5l-80.75-52.583c0,0-0.917-0.917,0-2.333
			c0.917-1.417,26.417-37.75,26.417-37.75L2249,690.158z"/>
		<path fill="#FFD453" d="M1975.083,656.242l34.5,22.417l29.25,18.333l57,36.25c0,0,0.583,1,0,1.833
			c-0.583,0.833-17.333,24.583-17.333,24.583l-10.083,14.083l-23.583,33.167c0,0-0.917,1-2.417,0s-26.333-16.833-26.333-16.833
			l-38.25-24.083l-51.083-32.25c0,0-0.917-1,0-2.417c0.917-1.417,24.5-38,24.5-38L1975.083,656.242z"/>
		<path fill="#FFD453" d="M2103.917,738.492l30.167,18.167c0,0,38.75,24.167,39.583,24.417c0,0,0.698,0.583,0,1.646
			c-0.698,1.063-20.604,28.563-20.604,28.563l-15.688,22.125L2122,854.783l-39-23.25l-30.75-18.75c0,0-0.563-0.625,0-1.5
			s32.875-46.25,32.875-46.25L2103.917,738.492z"/>
		<path fill="#FFD453" d="M2129.25,858.783l52.75-73.125c0,0,36.5,24.5,43.75,28.625c6.5,4.25,36.875,24.672,36.875,24.672
			s42,25.953,52.75,34.828c0,0,23,16.625,26.75,19.25l32,23c0,0,0.938,0.938,0,1.688S2309,978.658,2309,978.658
			s-0.667,0.417-2.25-0.75s-23.667-16.417-25.583-17.667c-1.917-1.25-33.75-22.583-33.75-22.583L2201,907.242l-71.75-47.458
			C2129.25,859.783,2129.001,859.129,2129.25,858.783z"/>
		<path fill="#FFD453" d="M1921.375,740.283l38.25,24.5c0,0,1.063,0.75,0,2.375s-19.563,29.75-19.563,29.75l-21.396,32.417
			l-27,41.417c0,0-1.042,0.958-2.229,0c-1.188-0.958-36.563-26.583-36.563-26.583l15.688-24c0,0,27.563-42.063,30.688-46.5
			C1902.375,769.158,1921.375,740.283,1921.375,740.283z"/>
		<path fill="#FFD453" d="M1967.063,770.408c0,0,0.813-1.125,2.188,0s16.813,10.688,16.813,10.688l52.688,33.896
			c0,0,0.656,0.635,0,1.448s-24.563,35.594-24.563,35.594l-48.354,70.875c0,0-0.552,0.594-1.552,0s-43.594-30.563-43.594-30.563
			l-22-15.625c0,0-0.563-0.75,0-1.375s14.5-21.75,14.5-21.75l20.25-30.688l21.938-34.125L1967.063,770.408z"/>
		<path fill="#FFD453" d="M1847.688,852.846c0,0,0.688-1.375,1.938-0.313s36.313,25.75,36.313,25.75s0.75,1,0,1.938
			s-27.854,40.604-27.854,40.604l-23.25,34.083c0,0-0.708,0.375-1.958-0.375s-38.5-27.188-38.5-27.188l17.063-24.313l23.063-31.063
			L1847.688,852.846z"/>
		<path fill="#FFD453" d="M1892.833,885.158c0,0,1.167-1.167,2.583,0c1.417,1.167,30.917,21.5,30.917,21.5l33.083,23.5
			c0,0,1,0.833,0,2.333s-15.833,24.333-15.833,24.333l-34,52.583c0,0-1.083,0.583-2,0c-0.917-0.583-48.917-36.25-48.917-36.25
			l-16.417-12.167c0,0-0.833-1.167,0-2.417s24.917-35.403,24.917-35.403L1892.833,885.158z"/>
		<path fill="#FFD453" d="M2045.625,820.408c0,0,1.125-1.25,2.75,0s67.875,40.938,67.875,40.938s1.25,0.5,0.438,1.875
			S2049,970.533,2049,970.533s-1.75,1.542-3.375,0.375c-2.542-1.5-72.875-42.625-72.875-42.625l17-24.75L2045.625,820.408z"/>
		<path fill="#FFD453" d="M2124.161,868.055c0,0,0.625-1.25,2.25,0s88.625,58,94,62.375c6.25,4.375,71,46.625,71,46.625l11.25,8.25
			l-17.375,17.625c0,0-12.156,11.223-25.786,23.791c-16.714,15.411-36.471,32.531-37.917,33.771
			c-2.625,2.25-34.922,26.97-34.922,26.97s-0.917,0.302-1.521-0.302c-0.604-0.604-34.813-34.604-34.813-34.604
			s-18.75-17.583-22.917-20.667c-4.167-3.083-57.167-44.083-57.167-44.083l-14.167-9.917c0,0-0.667-1.167,0-1.917
			c0.667-0.75,22.167-35.083,22.167-35.083l28.25-44.417L2124.161,868.055z"/>
		<path fill="#FFD453" d="M1916.375,1014.283l50.5-77.75c0,0,1.125-1.25,2.75,0s73,42.5,73,42.5s0.875,1.125,0,2.5
			c-1.625,2.25-58.5,84.375-58.5,84.375l-67.75-49.75C1916.375,1016.158,1915.73,1015.277,1916.375,1014.283z"/>
		<path fill="#FFD453" d="M2015.333,1036.408l34.917-51.833c0,0,0.333-0.667,1.5,0c1.5,1.25,39.333,29.333,39.333,29.333
			s36.833,29.083,41.5,33.75c5.75,5.333,43.303,41.333,45.318,44.5c-3.651,2.75-44.651,30.333-44.651,30.333l-18.188-18.958
			c0,0-7.563-8.063-11.75-11.125s-19.938-15.875-28.5-20.125c-8.75-5-24.75-14.188-24.75-14.188l-34.25-20.188
			C2015.813,1037.908,2014.817,1037.174,2015.333,1036.408z"/>
		<path fill="#FFD453" d="M1990.333,1071.408l19.333-26.333c0,0,57.167,31.667,61,34.333c3.833,2.667,28,18.667,36,27.333
			c8,8.667,19,20.833,19,20.833l-44.333,31.333c0,0-11.833-18.667-28.333-29.5c-13.167-12.5-62.667-56.833-62.667-56.833
			S1989.762,1072.186,1990.333,1071.408z"/>
		<path fill="#FFD453" d="M640,1070.033c0,0,13.375-8.625,14.75-11.875c0,0,1.625,12.375,5.25,17.75
			C654.25,1074.033,642.875,1070.908,640,1070.033z"/>
		<path fill="#FFD453" d="M585.25,1100.033c0,0,31.125-15.125,36.25-16s29.125-4.75,49.125,11c0,0,11.5,9.5,28.625,29.75
			c18.375,20.5,21.875,24.5,21.875,24.5l23.5,27.125l64.625,85.75c0,0,1.083,1.167,0,2.083c-1.083,0.917-47.75,40.042-47.75,40.042
			l-90.125,71.75c0,0-1.792,1.542-3.542,0s-33.417-29.292-33.417-29.292l-41.5-36.083l-37.833-32.583c0,0-1.333-1.333-0.667-2.833
			c0.667-1.5,17-39,17-39l21.667-50.417c0,0,2.333-4.917-1.583-6.25c-3.917-1.333-5.667,1.667-6.333,2.917
			c-0.583,1.5-37.667,87.729-37.667,87.729s-0.563,0.875-2.438-0.625c-2.313-2-34.063-29.938-34.063-29.938l18.667-52.25l12-34.583
			c0,0,10.417-19.417,20.333-28.583C571.917,1113.658,585.25,1100.033,585.25,1100.033z"/>
		<path fill="#FFD453" d="M507.5,1248.158c0,0,67.25,60,73.5,63.75c6.25,4.25,80.917,70.25,80.917,70.25s0.5,0.917,0,1.417
			s-55.292,43.333-55.292,43.333l-83,65.625l-58.75-28.25c0,0-13.875-8.375-13.75-17.625s0.875-28.5,3.875-38
			c2.375-9.75,11.125-33.25,11.125-33.25l13.875-44L507.5,1248.158z"/>
		<path fill="#FFD453" d="M999.333,850.575l108.833,51.167l-33.5,56c0,0-25.333,44.667-30.667,51.5
			c-6.333,9.333-53.833,82.333-53.833,82.333l-17,25.667c0,0-1.042,0.583-2.167,0c-1.125-0.583-55.833-34.833-55.833-34.833
			l-37.75-23.25c0,0-0.333-0.917,0.417-2.25s14.583-22.625,14.583-22.625l17.5-27.875c0,0,22.833-38.833,24.833-42.667
			c2.25-3.75,17.667-30.583,17.667-30.583s16.25-29.167,18.25-32.5C972.667,897.158,999.333,850.575,999.333,850.575z"/>
		<polygon fill="#FFD453" points="755.333,1171.242 804,1125.575 830.833,1100.408 871.5,1066.075 966.875,1124.658 
			936.125,1152.033 901.5,1181.908 843.375,1233.658 818.625,1255.408 796.125,1225.533 		"/>
		<path fill="#FFD453" d="M1199.375,735.283c0,0,2.25-2.375,4-1.375s44.75,18.875,44.75,18.875l57.625,23.625l52,21.75
			c0,0,1.417,0.833,0.583,2.5c-0.833,1.667-30.458,60.75-30.458,60.75l-10.458,22.333l-13.667,25.333l-16.583,28.917l-8.181,12.333
			l-10.569,15.333c0,0-1.583,0.583-3.167,0s-65.333-30.667-65.333-30.667l-52.583-24.583l-27.167-12.833l15.917-31.667
			c0,0,22.75-45.667,27.583-55.75c4.833-10.083,25.5-52.667,25.5-52.667L1199.375,735.283z"/>
		<path fill="#FFD453" d="M1366.25,803.158c0,0,0.917-0.833,1.833-0.333c0.917,0.5,30.917,14.75,30.917,14.75l43.583,20.417
			l51.167,24.5c0,0,1,0.333,0.583,1.583c-0.417,1.25-14.833,35.333-14.833,35.333l-22.625,54.5L1439,994.283l-20.625,43.625
			c0,0-0.542,1.417-2.292,0.667s-17.542-8.833-17.542-8.833l-43.167-20.958l-55.313-26.938l-23.688-11.625
			c0,0-0.5-0.563-0.313-1.125c0.813-0.875,9.75-13.625,9.75-13.625s9.375-13.125,13.5-20.813s19.313-33.875,19.313-33.875
			l16.438-34.125c0,0,16.5-33.938,17.188-35S1366.25,803.158,1366.25,803.158z"/>
		<path fill="#FFD453" d="M1517.813,876.408c0,0,1,0.688,0.313,2.125c-0.625,1.438-14.042,34.292-14.042,34.292l-14.833,36.667
			c0,0-1.167,4.667,2,6.083c0,0,4.417,0.417,6.167-3.083S1508,926.575,1508,926.575l17.625-43.854c0,0,0.625-1.5,2.25-0.313
			c1.625,1.313,21.813,14.5,21.813,14.5l12.688,8.563l13.813,11.75c0,0,0.75,0.688-0.438,2s-14.75,19.5-14.75,19.5l-10.5,14.438
			l-16.875,22.188l-17.75,25.5l-39.417,59.479c0,0-0.875,0.75-2.375,0.208s-47.896-17.75-47.896-17.75s-0.563-0.75-0.313-1.438
			c0.375-0.813,8.5-16.75,8.5-16.75l13.375-28.625l15.313-34.188l14.75-35.375l17.563-42.25l6.688-16.125c0,0,0.438-0.688,1.375,0
			C1504.438,868.721,1517.813,876.408,1517.813,876.408z"/>
		<path fill="#FFD453" d="M1580.75,926.283l2.688-3l11.813,10.875l49.125,44.25l26.5,22.875l41.438,37.5c0,0,0.688,1,0,2.063
			s-4.875,8-4.875,8l-44.458,69.333c0,0-18.104,7.729-30.073,4.51c-11.844-3.219-42.156-15.865-42.156-15.865l-49.917-20.167
			l-55.708-21.75c0,0-1.292-0.708-0.792-1.417c0.5-0.708,7.875-11.625,7.875-11.625l32.125-48.958l27.417-37.75L1580.75,926.283z"/>
		<path fill="#FFD453" d="M1786.875,914.158c0,0,2.375-2,3.125-1.5c-0.5,0.875-42,67.25-42,67.25s-0.625-2.75,0.75-5.375
			C1751.75,970.658,1786.875,914.158,1786.875,914.158z"/>
		<path fill="#FFD453" d="M1789.167,935.992c0,0,0.583-1.417,1.833-0.417s37.667,26.5,37.667,26.5s0.667,0.333,0,1.333
			c-0.667,1-14.917,20-14.917,20l-18.667,24.75l-27.417,36.417l-14,17.833l-23.583-23.333c0,0-1.667-3.167,1.417-7.583
			c3-4.917,23.25-39.5,23.25-39.5l25.25-41.333L1789.167,935.992z"/>
		<path fill="#FFD453" d="M1835.5,968.283c0,0,0.938-0.813,2.063,0s65.688,48.875,65.688,48.875s0.875,0.5,0,2.188
			c-1.063,1.688-19.167,30.563-19.167,30.563l-53.5,85.75c0,0-1.521,1-2.896-0.688c-1.938-1.75-19.375-18.938-19.375-18.938
			l-47.125-46.125c0,0-1.063-0.875-0.5-2.188s23-29.938,23-29.938l23.625-31.813L1835.5,968.283z"/>
		<path fill="#FFD453" d="M1910.083,1024.242c0,0,0.917-1.833,2.75-0.583c1.667,1.417,27.75,21.417,27.75,21.417l37.083,27.333
			c0,0,1.083,0.806,0,2.403c-1.083,1.597-35.542,49.472-35.542,49.472l-36.875,52.25l-15.25,20.625l-31-30.875l-22.417-22.375
			c0,0-0.25-1.5,0-2s25.167-40.083,25.167-40.083l29.417-46.75L1910.083,1024.242z"/>
		<path fill="#FFD453" d="M1984.5,1079.575c0,0,0.667-1,1.75,0s25.25,23.083,25.25,23.083l29.167,26.667
			c0,0,12.583,11.417,16.167,13.917c0,0,10.083,9.583,17.25,20.5c-5.917,4.833-63.75,44.917-63.75,44.917l-64.083,45.333
			l-49.417-50.167c0,0-0.333-0.75,0-1.75c1.167-1.167,10.833-14.75,10.833-14.75l27.667-38.75l26.833-37.5L1984.5,1079.575z"/>
		<path fill="#FFD453" d="M1115.083,906.325c0,0,1.167-1.25,2.25-0.75c1.083,0.5,60.417,28.167,60.417,28.167l45.75,21.667
			l38,17.583c0,0,0.417,0.417-0.583,1.583c-1.25,1.25-20.583,23-30.75,30.333c-10,8.333-52.667,43.5-52.667,43.5l-63.667,52.5
			L1066,1143.742l-9.333,9l-12.417,7.417c0,0-1.167,0.417-3.333-1c-2.25-1.417-59.917-36.083-59.917-36.083s-0.917-1.25,0-2.5
			s9.083-13.667,9.083-13.667l35.083-54.167l31.667-47.917l22.833-38.907l23.917-40.509L1115.083,906.325z"/>
		<path fill="#FFD453" d="M973.333,1130.075c0,0,0.5-1.75,2.917,0c2.583,1.75,20.333,12.5,20.333,12.5l39.083,23.5
			c0,0,0.75,0.75-0.583,1.833c-1.417,1.417-5.917,6-5.917,6l-8.417,10.167l-18.583,24l-20.667,28c0,0-4.167,5.083-10.25,10
			c-6.083,4.917-29.583,23.333-29.583,23.333l-36.5,28.833l-30.917,25.083l-49.417-60c0,0-0.729-0.979,0-1.729
			c0.854-0.75,15.354-13.438,15.354-13.438l53.563-48.25l47.75-41.75L973.333,1130.075z"/>
		<path fill="#FFD453" d="M815.5,1270.325l35.083,43.083l28.417,36.5c0,0-0.583,11.25-8.75,22.083
			c-9.833,9.083-12.833,11.917-12.833,11.917l-85.333,76.75c0,0-1,0.75-2.667-0.667c-1.667-1.417-28.583-23.833-28.583-23.833
			l-64.333-53.083l37.083-29.667l40.75-32.5L815.5,1270.325z"/>
		<path fill="#FFD453" d="M531.924,1497.273l136.242-108.031c0,0,1.333-0.792,2.458,0c1.125,0.792,93.375,77.292,93.375,77.292
			s0.417,0.542-0.833,1.708c-1.25,1.167-14.083,12.333-14.083,12.333s-7.833,7.417-12.25,17.833
			c-4.417,10.417-15.083,33.75-15.083,33.75l-21,46.5c0,0-36.333-16-47.833-20.417c-11.417-5.083-39.917-19-39.917-19
			L531.924,1497.273z"/>
		<path fill="#FFD453" d="M1200,1041.408c0,0,41.667-33.5,50.5-44.333c10.167-9.833,19.667-19.5,19.667-19.5l24.896,11.396
			l118.771,57.688c0,0,1,0.917,0.417,2.083c-0.583,1.167-32.25,75.417-32.25,75.417s-77.5-36.625-88.25-40.625
			s-93.75-40.5-93.75-40.5S1198.686,1042.469,1200,1041.408z"/>
		<path fill="#FFD453" d="M1188.875,1050.033c0,0,2.25-1.25,4.5,0s122.364,52.375,122.364,52.375s1.771,1.75,0.886,4.375
			s-18.458,51.792-18.458,51.792s-1.542,4.333,2.208,6.333c0,0,3.5,0.75,5.375-2.625c1.625-4,19.625-53.688,19.625-53.688
			s0.563-1.125,1.938-0.625s49.125,22.5,49.125,22.5s1.438,0.5,0.438,2.5c-0.938,2.25-20.25,49.688-20.25,49.688
			s-12.875,29-18.875,36.375s-7.625,11.25-18.75,20.5c-10.75,9.625-53.75,44.875-53.75,44.875l-91.5-51.125c0,0-0.333-1.292,0-2.458
			c0.333-1.167,34.583-64.917,34.583-64.917s2.25-5.25-0.917-6.417c-2.667-1.167-5-0.5-7,3s-34.625,65.167-34.625,65.167
			s-0.875,1-1.667,0.458c-0.792-0.542-111.292-61.875-111.292-61.875s-0.604-0.958,0-1.271c0.604-0.313,10.292-6.5,10.292-6.5
			l11-10.438c0,0,41.554-37.25,46.964-41.625s40.161-33.625,40.161-33.625L1188.875,1050.033z"/>
		<path fill="#FFD453" d="M1013.25,1207.533c0,0,27.25-34.625,29.375-35.75c0,0,1.375-1.75,3.25,0
			c2.375,1.625,34.875,19.875,34.875,19.875l86.75,48.125l90,50.542l-61.5,45.083l-41.125,28.625l-44.25,30.75
			c0,0-0.958,0.292-1.875-0.625c-0.833-0.917-38.75-47.333-38.75-47.333l-39.083-48.167l-44.417-53.75c0,0-0.75-0.667,0-1.833
			C987.583,1241.825,1013.25,1207.533,1013.25,1207.533z"/>
		<path fill="#FFD453" d="M978,1251.658c0,0,2.25-1.875,3.125,0c1.375,2.375,25.125,31.258,25.125,31.258l95.375,115.992
			c0,0,0.625,0.875-0.625,2.25c-1.5,1.375-32.75,22.125-32.75,22.125l-34.625,22l-35.75,21.5c0,0-7.5,2.125-10.875,0
			s-11.875-8.375-13.625-10.375s-32.25-41.375-32.25-41.375l-60.375-82.375c0,0-2.5-3,0-5.125s48.75-37.875,48.75-37.875
			L978,1251.658z"/>
		<path fill="#FFD453" d="M886.25,1359.276l6.125,8.632l-10.625,0.875C881.75,1368.783,885.5,1362.894,886.25,1359.276z"/>
		<path fill="#FFD453" d="M876.333,1378.575c0,0,17.833-5.333,24.333,1.333c5.167,7.333,47.833,65.333,47.833,65.333
			s11.5,20.833,10,37.5c-1.5,16.667-1,19.333-6.5,33.667l-11.167,23.167l-21.667,39.083c0,0-2.167,3.25-7.5,0
			c-6-5.083-123.604-106.438-123.604-106.438s-6.813-4.875-1.75-13.125c7.75-6.688,12.25-10.875,12.25-10.875l76.354-68.896
			L876.333,1378.575z"/>
		<path fill="#FFD453" d="M753.333,1488.575c0,0,8.083-8.75,11.25-9.083c3.167-0.333,8.833-0.75,11.25,1.5
			c2.917,2.583,21.333,17.917,21.333,17.917l39.583,34.167l72.583,62.5l-21.917,51.833c0,0-8.083,12.083-17.75,12.167
			c0,0-8-0.167-15.25-3.917s-145.5-73.5-145.5-73.5l37.083-84.5L753.333,1488.575z"/>
		<path fill="#FFD453" d="M969.875,1469.908l16,18.25l-17,14.25C968.875,1502.408,971.75,1475.283,969.875,1469.908z"/>
		<path fill="#FFD453" d="M963.75,1526.658c0,0,7.25-15,29.75-28.5c4.125,3.75,11.875,12.75,11.875,12.75s-11.813,0.625-15.25,6.688
			c-3.813,6.188-5.75,8.938-6.563,13.563C983.563,1531.158,977.813,1525.471,963.75,1526.658z"/>
		<path fill="#FFD453" d="M987.813,1534.908"/>
		<path fill="#FFD453" d="M1710.5,1065.908l11.5-18.25l100.5,98.75l-50.5,63.5c0,0-42-27.75-45.5-30.5s-56.75-41.875-56.75-41.875
			s-1.875-1.875-0.875-3.875s10.25-20.625,18.125-30.5C1695,1091.158,1710.5,1065.908,1710.5,1065.908z"/>
		<path fill="#FFD453" d="M1779.375,1214.283l50.125-61.75l14.875,15.625l41,40.875l29.5,30.5l20.75,21.25l-64.625,40.5
			c0,0-23.125-27.625-29.375-32.375c-6.625-5.5-62.083-53.375-62.083-53.375S1778.896,1214.873,1779.375,1214.283z"/>
		<path fill="#FFD453" d="M1645.375,1173.908c0,0,4.375-2.375,7.75-9s10.875-21.25,10.875-21.25l32.875,23.875
			c0,0,37.125,28.75,45.25,32.75c0,0,25.896,15.375,37.073,25.625s43.302,37.625,43.302,37.625s16.875,14.125,19.375,16.5
			s21.625,26.125,21.625,26.125l-20.75,14c0,0-19.625,11-26.625,17.375c-7.375,6.25-46.125,44-46.125,44l-26.083-26.875
			c0,0-11.083-10.25-19.167-16.5s-25.917-19.417-25.917-19.417l-35.167-22.75c0,0-0.604-0.208,0.021-1.208
			c1.063-1,7.25-8.938,7.25-8.938l26.646-35.854c0,0,1.917-4.083-0.458-6.021s-4.75-0.938-6.063,0.625s-34.063,45.25-34.063,45.25
			s-1.063,0.438-2.625-0.438s-31.688-20.5-31.688-20.5l-20.813-13.375c0,0-0.563-0.438,0-1.25s37.125-65.875,37.125-65.875
			L1645.375,1173.908z"/>
		<path fill="#FFD453" d="M1423.688,1050.867l46,17.042l77.688,30.625l62.5,25.5l14.875,5.625c0,0,13.75,4.5,23.875,1.625l9.5-2.5
			l-16.5,32.75c0,0-11.5,14.375-32.5,13.625l-75.875-8l-47.5-4.625c0,0-17.875-2.625-38.375-12.125
			c-20.875-9.25-55.375-23.5-55.375-23.5s-1.375-1.875-0.875-2.75s19-44.625,19-44.625l11.875-28.667
			C1422,1050.867,1422.75,1050.519,1423.688,1050.867z"/>
		<path fill="#FFD453" d="M1387.875,1137.533l46.5,20c0,0,4.125,2.75,1.25,10c0,0-9.875,4.807-13.375,7.653
			c-3.5,2.847-11,8.847-14.75,12.972s-15.5,15.375-15.5,15.375l-19.375,19.125l-36.25,27l-60.25,47.125l-16.75,12.25l-46,32.75
			l-51.625,34.5l-84,54.375l82.75-56.125l50.25-35.625l56-40.375l46.75-39.25c0,0,23.75-17.625,33.375-32.25
			c8.875-15.5,16.75-26.75,22.5-43.625C1376.625,1166.783,1387.875,1137.533,1387.875,1137.533z"/>
		<path fill="#FFD453" d="M1382.333,1229.242l38.667-38c0,0,17.667-16.667,36-17.833c0,0,14.167-1.667,55.5,3.667
			c41,4.333,64,7.333,64,7.333s36.25,6.188,51.063-0.313L1592,1248.283c0,0-0.5,0.625-2.438-0.5s-42-24.938-42-24.938
			s-13.25-9.073-24.625-12.037c0,0-11-3.713-21.438,0.412c-10.125,4.75-56.25,29.438-56.25,29.438l-18.813,10.125
			c0,0-15.125,4.5-28.313-4.875C1388.688,1236.096,1382.333,1229.242,1382.333,1229.242z"/>
		<path fill="#FFD453" d="M1431.438,1257.783l73.51-39c0,0,11.427-2.782,22.802,2.297c10.375,6.453,60.75,36.328,60.75,36.328
			l-23.375,36.375l-23.625,32.375l-18.125,22.875l-10,10.375c0,0-1.313,0.625-2.625-0.875c-1.438-1.625-28.188-28.5-28.188-28.5
			l-63.229-63.292C1419.333,1266.742,1429.949,1258.561,1431.438,1257.783z"/>
		<path fill="#FFD453" d="M1283,1306.242l46-36l45.917-34.333c0,0,1.291-1,2.312,0c1.021,1.417,11.938,13.75,11.938,13.75
			l54.583,53.583c0,0,1.167,0.583,0,2.333s-25.417,36.5-25.417,36.5l-28.708,42.083c0,0-3.063,7.875,2.313,13.75
			c6.813,5.125,8.313,6.063,8.313,6.063l12.188,8.813l12.25,9.313l40.646,32.979c0,0,0.667,0.556-0.333,1.861
			c-1.75,1.889-28.75,30.555-28.75,30.555l-39.969-39.552l-12.219-14.469l-57.729-72.729L1283,1306.242z"/>
		<path fill="#FFD453" d="M1450.25,1311.158c0,0,0.667-0.917,1.583,0c0.917,0.917,31.25,31.833,31.25,31.833l46.167,46.833
			c0,0,1.083,1.167,0,2.167s-56.625,56.667-56.625,56.667s-0.958,0.208-1.667-0.292c-0.708-0.5-28.583-22.896-28.583-22.896
			l-43.938-33.125c0,0-2.25-3.75,0-6.938c2.313-3.25,25.979-37.083,25.979-37.083L1450.25,1311.158z"/>
		<path fill="#FFD453" d="M1595,1263.533c0,0,1-1.75,2.708-0.458c1.708,1.292,12.958,8.667,12.958,8.667l45.667,29.25l43.833,28.833
			l26.833,21.417c0,0,22.417,19.917,36.917,36.167c-7.5,8.667-28.333,32-28.333,32l-18,19.5l-22.417,23.417l-40.417,41.25
			l-27.25-27.333l-33.667-34l-47.25-46.667l-27.417-28.25c0,0-0.833-0.667,0-1.417c0.833-0.75,14.458-15.813,14.458-15.813
			s1.063-1,2.188,0.25c1.563,1.5,29.438,26.063,29.438,26.063l25.688,22.875c0,0,3.625,2.313,5.688-0.25
			c0,0,2.563-3.625-0.313-6.313s-55.688-49.313-55.688-49.313s-0.625-0.625-0.208-1.375c0.5-0.792,10.375-13.958,10.375-13.958
			l21.208-29.479L1595,1263.533z"/>
		<path fill="#FFD453" d="M1475,1458.283l59.5-60c0,0,1.438-1.688,2.688-0.5s25.125,25.438,25.125,25.438l34.771,35.063
			l50.917,50.625c0,0,0.125,0.5-0.75,1.375s-19,17.875-19,17.875l-11,9.5l-32.5,23.5c0,0-1.875,0.125-3.125-1.75
			s-30.5-43.375-30.5-43.375s-0.75-2.875-5.125-6s-71-49.5-71-49.5S1474.19,1459.1,1475,1458.283z"/>
		<path fill="#FFD453" d="M1198.375,1366.283l77.75-55l24.25,30.5l37.125,47.875l39.75,49.25c0,0,12.5,14.375,15.25,17.25
			s36.667,37,36.667,37s0.604,0.688,0,1.625c-0.604,0.938-14.583,16.125-14.583,16.125l-25.917,28.083L1363,1566.908
			c0,0-0.5,0.5-1.688-0.438c-1.188-1.313-21.75-26.875-21.75-26.875l-36.896-45.354l-52.542-64.458L1198.375,1366.283z"/>
		<path fill="#FFD453" d="M1082.5,1440.742l65.333-41.667l42.417-27.542c0,0,1.5-1.125,2.25,0s31.125,38.875,31.125,38.875
			l27.875,34.5l43.5,53.75l60,73.75c0,0,1.188,1.313,0,2.375s-15.813,14.563-15.813,14.563l-18.938,15.063
			c0,0-14.375,6.625-16.563,6.813c0,0-1.563,0.188-2.188-0.75s-20.188-33-20.188-33s-2.5-3.375-6.313-1.125
			c0,0-2.563,1.813-1.063,5.188s20.125,33.688,20.125,33.688s-10,1.813-13.75,3.25l-13.813,4.063c0,0-16.125,4.125-22.625,12.813
			l-4.813,5.563l-20.938-28.5l-23.75-30.125l-48.25-61.625l-35.5-44.375l-28.125-34.958
			C1082.5,1441.325,1082.255,1440.898,1082.5,1440.742z"/>
		<path fill="#FFD453" d="M1423.333,1513.908l44.167-47.167c0,0,0.833-1.667,3.167,0c2.333,1.667,57.333,39.229,57.333,39.229
			l13.375,9.563c0,0,3.625,2.5,6,7.625c6.625,9.625,30.542,43.083,30.542,43.083l-26.333,18.583l-35.167,24.667l-15.792-24.75
			c0,0-2.042-4.75-7.958-4.917c0,0-8.917,0-11.083-1.917c-1.917-2.667-26.583-37.125-26.583-37.125s-3.208-5.417-7.542-2.583
			c0,0-2.667,2.083-0.292,6.5c2.708,4,27.208,38.458,27.208,38.458s2.25,3.563,5.5,4.125s11.063,0.875,11.063,0.875
			s2.063-0.438,3.875,3.375c2.5,4.125,13.625,21.813,13.625,21.813l-10.438,6l-17.875,8.063l-27.5,12.75l-20,9.375
			c0,0-7.438-11.25-11.375-15.438c-4.063-4.625-23.25-26-23.25-26l-29.25-33c0,0-0.875-0.813,0-1.75s9.813-10.875,9.813-10.875
			l22.625-24.25L1423.333,1513.908z"/>
		<path fill="#FFD453" d="M1244.083,1648.075c0,0,7.75-10.583,16.083-14.5c0,0,11.167-4.25,27.333-8c0,0,30.167-7.5,45.25-19.5
			c14.917-12.917,28.083-24.833,28.083-24.833s1.229-0.917,1.854,0c0.625,0.917,17.125,19.167,17.125,19.167l15.875,18.125
			l20.396,22.375l8.667,12.5l-15.25,7.167l-22.917,8.083l-54.25,17.583l-55.771,18.792c0,0-1.188-1.063-1.438-1.813
			c-0.563-1.125-10.063-20.75-10.063-20.75s-11.063-19.729-13.979-24.229C1248.167,1653.742,1244.083,1648.075,1244.083,1648.075z"
			/>
		<path fill="#FFD453" d="M1003.667,1490.742l30.5-19l40.208-25.333c0,0,1.042-0.75,1.792,0.417
			c0.75,1.167,12.417,15.75,12.417,15.75l19.167,24.708l22.125,28l33.875,42l21,26.75l20.125,25l12.875,18l18.25,24.125l15.75,25
			c0,0,10.875,18.5,15.375,31.5c-7.5,2.5-32.875,10.125-32.875,10.125l-37.75,11.75l-16.125,6l-10.25-16.125
			c0,0-23-36.5-26.875-42.625c-4.625-6.625-18.125-31.324-19.625-33.849c-1.5-2.526-13.5-24.026-16.375-28.026
			s-18.25-24.056-18.25-24.056l-36.75-44.319L1003.667,1490.742z"/>
		<path fill="#FFD453" d="M991.5,1535.492c0,0,1.667-10.25,6.333-13.333c0,0,9.5-5.25,16.75-0.833
			c4.75,5.417,15.583,17.667,15.583,17.667l18.583,22.417l23.75,28l15.5,18.833c0,0,11.417,16.583,14.167,21.917
			c3.25,5.917,10.5,18.25,10.5,18.25l18.833,32l24.667,39.167l13.417,21.167l-21.917,12.917c0,0-29.917,17.083-41.5,25.833
			c-10.833-5.5-21.75-10.75-21.75-10.75l-32.25-15.333l-29-14.5c0,0-0.5-1-0.25-1.583c0.25-0.583,9.083-15.917,9.083-15.917
			l16.5-30.25l4.417-8.083c0,0,4.417-4.583,1.833-17.333c-3.917-12.417-4.833-15.5-4.833-15.5l-6.5-21.25l-7.917-22.583l-9.5-21.417
			l-26.917-37.333l-6.896-9.063C992.188,1538.596,991.418,1535.946,991.5,1535.492z"/>
		<path fill="#FFD453" d="M922.75,1595.408l32.25-56.25c0,0,11.625-6,18.625-2.75c0,0,7.75,2.875,11.5,7
			c3.75,4.875,17.75,24.125,17.75,24.125l9.125,12.569c0,0,13,18.931,17,33.556c0,0,7.5,23,8,24.875c0,0,5.125,17.125,7.25,21.625
			c0,0,4.125,9,1.625,17.375c-3.75,8.125-7.625,14.5-7.625,14.5l-48.375-39.875L922.75,1595.408z"/>
		<polygon fill="#FFD453" points="882.917,1668.575 887.917,1665.075 888.75,1670.908 		"/>
		<path fill="#FFD453" d="M916.25,1609.908l2.75-6.25l36.417,30.667L995,1667.408l39,32.667l-19.333,34.417l-40.5-20.583
			l-62.667-31.25c0,0-10.75-7.25-11.167-16.417c0,0-1.917-12.25,0-18.167C902.833,1642.242,916.25,1609.908,916.25,1609.908z"/>
		<path fill="#FFD453" d="M1065.833,137.812c0,0,19.167-14.904,36.333-11.737c17.167,3.167,109.5,24.667,109.5,24.667
			l102.833,23.167l85.285,21c0,0,28.381,7.667,45.548,28.5c0,0,20.833,21.833,26.167,31.167l21.833,35.833L1511,320.742
			c0,0,5,11.5,0,21.333c0,0-11.333,10.667-17.333,13.667c-5.667,3-101.833,52.5-101.833,52.5s-5.083,2.167-11.917-2.75
			c-6.833-4.917-54.583-42.25-54.583-42.25s-19.667-17.667-25-24.667c-5.333-7-36.833-42.333-36.833-42.333s0.25-5.958,4.375-7.708
			S1322,263.908,1322,263.908l77.785-36.125c0,0,5.34-1.563,3.527-7.375c0,0-2.375-2.438-6.063-1l-67.583,31.25l-66.083,30.083
			c0,0-11.708,3.042-15.021-0.146s-16.875-16.875-16.875-16.875s-14-12.563-19.188-16.125c-4.875-3.75-25.083-19.771-33-24.354
			c-7.917-4.583-53.625-31.646-53.625-31.646s-13.438-6.313-20.5-8.875s-37.542-14.979-37.542-14.979s-11.083-6.083-11.396-15.583
			c0,0-0.125-6.438,0.563-7.688L1065.833,137.812z"/>
		<path fill="#FFD453" d="M2563.167,754.075c0,0,13.917,4.667,22.5-7.583c7,4.083,13.583,9.333,13.583,9.333l56.75,36.083l27.125,18
			c0,0,13.375,10.917,6.375,34.5l-4.417,12.333l-33.917,68.667l-24.542,50.5l-62.875-62.625l-74.375-74.328
			c0,0,22.5-19.047,30.5-27.547c8.625-7.5,27.125-26.125,31.25-34.25S2563.167,754.075,2563.167,754.075z"/>
		<path fill="#FFD453" d="M2317.75,989.408l56.792-54c0,0,40.333-35.625,47.333-41.5s61.125-49.25,61.125-49.25l39.25,39.125
			l35.875,35.375l27.125,27.875l36.75,36.875l-24.5,46.5c0,0-11.125,21.875-20.125,40.125s-14.75,30.25-14.75,30.25l-25.292,48.125
			c0,0-13.333,26.167-20.833,34.667s-14.5,16-14.5,16l-36.667-41.333l-64.833-73.667l-52-59.667L2317.75,989.408z"/>
		<path fill="#FFD453" d="M2195.313,1097.283l21.438-15.625l22.5-18.5l19.375-17.25l52.625-50.25l24.25,27l21.75,25.25l37.5,42.875
			l35.25,39.375l32.625,37.25l33.375,38l-29.25,23.625l-45,36.75l-39.5,32.125c0,0-1.625,0.125-2.875-1.375s-15.375-17-15.375-17
			l-25.75-28l-35.125-37.875l-35.875-38.5l-37.75-40.75l-27.375-29.688L2195.313,1097.283z"/>
		<path fill="#FFD453" d="M1954.5,1264.408l40.833-28.333l48.833-34.333l67.167-47.5l54.333-37l22.396-15.083l20.125,21.438
			l14.063,15.438c0,0,14.625,16.125,17.5,18.875c2.75,3.375,13.438,14.25,13.438,14.25l22.729,23.417l-20.167,16.083l-38.083,28.917
			L2176,1272.492l-42.083,32.083l-37.083,28.417l-39.25,30l-19.833,14.75l-10.667-15.417l-24.25-35.833l-13.25-18.333l-13-17.583
			L1954.5,1264.408z"/>
		<polygon fill="#FFD453" points="2234,1239.075 2258.5,1220.325 2281.5,1202.658 2303.75,1227.242 2322,1246.575 
			2351.833,1278.992 2374.833,1303.825 2353.583,1321.075 2328.583,1341.575 2309.75,1357.158 2283,1378.408 2253.583,1401.742 
			2241.417,1387.325 2224,1365.575 2201.583,1337.992 2172.667,1302.2 2164.333,1291.575 2179.917,1280.325 2208.333,1258.492 		"/>
		<path fill="#FFD453" d="M2042,1385.075l40.167-30.333c0,0,71.667-54.25,74.833-57.583c3.5,3.583,14.583,17.583,14.583,17.583
			l35.25,43.167l16.667,21.083c0,0,20.083,25.083,22.75,28.333c-3.917,3.167-16.25,12.708-16.25,12.708l-14.625,12.5l-26.25,22.25
			l-17.875,14.375l-16.833,11.583l-18.75,10.583l-14.833,9l-16.667-22.75l-22.75-32.583l-13-19.833L2042,1385.075z"/>
		<path fill="#FFD453" d="M1778.875,1391.033l42.875-40.75c0,0,27.875-19.125,34.875-23.25c7.25-4.75,46.375-30.125,46.375-30.125
			l41.5-25.625c0,0,11.75,12.625,26,31.125c13.25,18.25,16.625,23,16.625,23s17.625,25.25,26.125,37.75s14.375,22,14.375,22
			l-21.375,17.75l-33.625,26.125l-55.875,44l-41,32.5c0,0-2.25-0.5-3.125-2s-10.125-13.375-10.125-13.375s-24.5-31.5-28-35.5
			s-22.625-26.125-22.625-26.125L1778.875,1391.033z"/>
		<path fill="#FFD453" d="M1881.875,1511.408l44.875-35.5l40.75-32.375l38.125-29.625l27-20.75l21.5,32.75l19.25,28.125
			c0,0,17.375,25.25,20.125,28.875s16.583,23.083,16.583,23.083l-11.396,6.042l-18.25,9.875l-30.021,16l-50.417,27l-58.667,32.417
			l-17.167-23.167l-23.667-32.75l-19.75-27.5C1880.75,1513.908,1879.92,1512.954,1881.875,1511.408z"/>
		<path fill="#FFD453" d="M1756.25,1416.158l16.75-19l17.375,19l20.625,24.125l21.125,24.125l36,46.5l-12.375,7.313
			c0,0-17.813,10.813-19.25,11.688s-18.667,11.75-18.667,11.75l-14.833,10.25l-16.75,12.25l-12.667,7.5c0,0-9,6.583-12.917,10.417
			c-3.917,3.833-20.25,18.5-20.25,18.5s-0.667,0.083-1.479-0.854s-21.563-25-21.563-25l-27.063-31.063l-26.625-30.25
			c0,0-0.344-0.5,0.406-1.188s8.656-8.281,8.656-8.281s13.156-13.563,13.813-14.313s12.438-12.719,12.438-12.719
			s6-6.313,10.625-10.125c4.75-5.063,15.125-15.688,15.125-15.688l21.125-23.438L1756.25,1416.158z"/>
		<path fill="#FFD453" d="M1851.833,1530.408l20.25-12.5c0,0,1.167-0.333,2,1.333c1.167,1.833,15.417,21.667,15.417,21.667
			l9.667,13.333l19.25,26.5l14.167,19.417c0,0,0.917,1.167-0.833,2.083c-1.75,0.917-17,9.083-17,9.083l-40.625,22.208l-14.625,8
			l-29.75,15.25l-25.125,13.5l-29.375-30.75l-29.25-31.75c0,0-0.813-0.875,0.375-1.75s24.375-21.292,24.375-21.292
			s7.333-6,10.333-7.667c3-1.667,41.167-28.417,41.167-28.417s2.25-0.75,3.167,0.833c1.25,1.667,25.167,34.5,25.167,34.5
			s4.25,0.75,5,0s1.667-2.417,0.5-5.083c-1.917-2.667-25.583-34.167-25.583-34.167s-0.438-1.146,0.438-1.771
			S1851.833,1530.408,1851.833,1530.408z"/>
		<path fill="#FFD453" d="M1614.167,1557.075c0,0,21.667-18,26.167-21.667s16.292-15,16.292-15s1.188-1.125,2.5,0.5
			s13.375,15.625,13.375,15.625l23.125,26.5l36.75,41.75c0,0,1.375,1.458-0.625,2.958c-2.417,2.25-16.333,13.667-16.333,13.667
			l-14.583,11.5l-7.333,6.333l-15.083,9.25l-28.333,17.75l-34.333,20.833l-21.25,13.371l-71.328,41.227l-23.297,13.423
			c0,0-2.813,0.875-4.5-2.25s-8.563-15.25-8.563-15.25l-22.646-37.271l-23.583-38.083c0,0-0.75-1.25,0.667-2.167
			c1.417-0.583,13.167-5.583,13.167-5.583l30.583-14.583c0,0,27.75-13.25,30.375-14.625s12.625-6.75,15.625-10.125l13.75-9.75
			l24.625-17.125l31.75-22.625L1614.167,1557.075z"/>
		<path fill="#FFD453" d="M1502.5,1764.408l50.333-30.5l75.167-44.5l65.333-39.875c0,0,17-12.292,18.167-13.625
			s28.167-23.167,28.167-23.167l18.458,20.292l38.375,41.25l-23.875,12.875l-26.896,14.75l-37.062,19.5L1636,1761.742l-48,26.667
			l-53.875,29.5l-31.625-52.125C1502.5,1765.783,1501.655,1764.92,1502.5,1764.408z"/>
		<path fill="#FFD453" d="M1187.564,1746.975l50.186-16.317c0,0,57.5-18,62.75-19.75s58.167-19.333,58.167-19.333l43.833-14
			l29.167-12.5l24.667,39.958l32.333,55.042c0,0,1,2.167-1,2.833c-2.167,0.833-20.5,9.667-20.5,9.667l-28.583,13.417l-15.958,7.042
			c0,0-16.125,4.375-21,5.625s-29.875,6.875-29.875,6.875l-46.375,10.75l-35.5,8c0,0-14.875,3.75-19.25,6.25
			s-26.625,13.75-26.625,13.75l-11.875-20.5l-24.875-43.25L1187.564,1746.975z"/>
		<path fill="#FFD453" d="M1119.125,1787.533l20.875-13.875c0,0,30.375-18.625,36.5-20.875c3.125,4.125,12.125,19.125,12.125,19.125
			l10.25,18l14.875,25.375l16.5,29l24.125,41.5l32.5,56.375c0,0,1.625,5.417,1.125,8.917c-3.417,2.5-38.75,23.333-38.75,23.333
			l-10.875-16.375l-25.625-41.25l-29-46.25l-19.875-33.5c0,0-15-20.25-19.875-26.25s-11.25-12.25-11.25-12.25
			S1121.625,1788.408,1119.125,1787.533z"/>
		<path fill="#FFD453" d="M1248.167,1852.075c0,0,29.083-15.292,33.583-16.667c5.125-1.375,49.875-11.25,49.875-11.25l35-8.5
			c0,0,53.625-11.875,59.625-14.375s36-16.625,36-16.625l31.5-15.125c0,0,9.75,14.542,19.167,30.042
			c9,15.083,13.917,22.417,13.917,22.417l-16.833,9.5l-21.083,12.333l-25.833,16.083l-34.5,21l-16.583,9.625
			c0,0-16.625,1.75-19.625,3.125s-13.375,6.75-13.375,6.75l-50.625,29.125c0,0-16,4.625-27.875-2.375s-12.25-7.75-15-12.5
			S1248.167,1852.075,1248.167,1852.075z"/>
		<path fill="#FFD453" d="M2168.75,551.408c0,0-2-1.75,0-6s25.25-53.25,31.25-73.5s37.5-103.25,37.5-103.25l17.75-53.25l32.5,21.25
			c0,0,54.5,26,66.25,30.5s103.25,36.5,103.25,36.5l146.25,50.75l62,24c0,0,15.5,8.333,11.5,22.333
			c-6.5,14-10.833,23.167-10.833,23.167s-12,29.833-22.667,58.167c-10.667,28.667-12.333,34.083-12.333,34.083L2614,667.908
			c0,0-7.625,20.125-9.375,22.875s-13.125,9.875-17.75,12.375s-9.625,5.5-9.625,5.5s-10.625-4.25-20.625,0.875
			c-8.75-3.875-26.875-11.875-26.875-11.875l-78.5-35.25c0,0-83.917-32.833-93.417-36s-68.5-26.667-76.667-29.667
			c-8.167-3-38.667-15.833-55.167-21.833C2209,567.908,2168.75,551.408,2168.75,551.408z"/>
		<path fill="#FFD453" d="M2002.25,487.158l24-68l13-41.25l21.75-66.25c0,0,11.5-30.083,18.167-38.583c0,0,10.5-17,35.833-14.167
			c0,0,50.667,9.333,59.833,12.333l9.333,4.333L2177,295.242l-26.75,77.632l-29,83.284c0,0-1.875,5.25,1.75,6.875
			c0,0,4.5,2.375,6.625-4.125s9.125-26.5,9.125-26.5l23.75-68.75l21.667-62.375l8.083-22.5l20.75,10.125l34.75,21.625
			c0,0,0.75,1.125,0,2.625c-1.125,1.875-8.25,21.375-8.25,21.375l-16.25,46.75l-16.75,46.375l-19.5,54.583l-26,63.333
			c0,0-1.125,1.583-3.25,1.083s-31.5-12.5-31.5-12.5l-40.75-15.5c0,0-61.375-23.875-73.25-28.375L2002.25,487.158z"/>
		<path fill="#FFD453" d="M842.25,145.658c0,0,6-13,11.25-13.375c5.75-0.25,40.375,3.125,46.375,4.375
			c6.125,1.125,40.25,6.625,40.25,6.625l55.25,11.75l62.875,23.125l56.5,22.625l48.125,28.25c0,0,18.5,9.875,26.625,17.125
			c8.875,7.375,35.875,28.875,42.625,37.25c0,0,5.375,6.25,0,14c-6.375,6-31.5,30.875-31.5,30.875l-28.375,27l-35.125,35
			l-24.792,24.042c0,0-1,1-2.417,0c-1.417-1-43.917-25.292-43.917-25.292l-70.125-40.813c0,0-5.875-3.5-8.688-0.125
			c0,0-1.75,3.813,2.375,6.625l20.25,11.688l50.313,29.25l44.625,25.667c0,0,1.333,0.583-0.417,2.833s-15,20.167-15,20.167
			l-39.083,53.083l-29.625,41l-53.375-40.625l-81.833-61.875c0,0-0.5-0.917,0.583-2.25s20.833-24.917,20.833-24.917
			s0.917-0.958,1.854-0.333s93,60.5,93,60.5s4.5,1.25,6.25-1.063c0,0,1.938-3.688-1.938-6.313l-32.938-21.375l-63.375-41.125
			c0,0-3.313-2.063-6,0.5c-2.625,2.75-24.625,29.563-24.625,29.563s-0.646,0.813-1.771-0.104c-1-0.917-46.875-36.833-46.875-36.833
			l-41-29.667l-10.25-8.333c0,0-10.833-8.833-5.75-27.167c6.583-18,9.583-25.583,9.583-25.583l12.333-31.75L842.25,145.658z"/>
		<path fill="#FFD453" d="M758.875,359.908L765,345.533c0,0,2.125,7.5,5.125,11.125C770.125,356.658,763,356.283,758.875,359.908z"
			/>
		<path fill="#FFD453" d="M753.25,375.283c0,0,10.875-15.5,25.5-8c14.125,7.625,40,26.75,40,26.75l47.625,38l39.792,30.875
			l59.708,45l48.25,36.5c0,0,0.958,0.333,0,2.167c-0.958,1.833-24.625,33-24.625,33l-29.75,40.417l-19.5-17.25l-21.5-19.333
			l-65.5-57.75l-42.5-37.75l-30.625-33.875l-31-34.25l-10.75-9.375L753.25,375.283z"/>
		<path fill="#FFD453" d="M718.25,457.658l17.125-38.625c0,0,4.25,2.708,13.792,13.208c9.542,10.5,12.208,13.625,12.208,13.625
			l11.688,13.229l30.063,33.125c0,0,0.5,0.604-0.167,1.771c-0.833,1.167-23.042,30.417-23.042,30.417L761.5,548.575l-15.333,23.583
			l-15.917,27.333l-16.5,28.5l-14.583,25.833l-46.417-36.792c0,0-0.5-0.813,0-2.438c0.875-2,7.063-17.563,7.063-17.563l21.188-53
			l21.5-49.375L718.25,457.658z"/>
		<path fill="#FFD453" d="M809.375,499.617c0,0,0.75-0.958,1.667,0c0.917,0.958,12.375,11.417,12.375,11.417l49.917,43.125
			l61.25,54.667l20.333,18.583l-8.542,13.125l-12.125,15.375l-27.75,35.5l-29.125-24.5l-28.5-23.625l-49.25-41.25l-39.375-33.5
			c0,0-1-1.458,0-2.708s12.417-17.333,12.417-17.333l17.917-24.083L809.375,499.617z"/>
		<path fill="#FFD453" d="M754.5,575.221l25.188,21.063l53.813,45.25l58.875,48.875l8.5,7.125c0,0,0.563,0.938-0.375,2.125
			s-9.833,14.5-9.833,14.5L866.5,749.742l-10.25,16.417l-29.833-21.083l-30.75-22.25l-47-33.667l-42.25-30.25
			c0,0-0.396-0.75,0-1.375c0.396-0.625,8.458-13.813,8.458-13.813l17.875-31.188L754.5,575.221z"/>
		<path fill="#FFD453" d="M649,624.992l40.833,32.333l34.917,25.667l35.833,25.417l33.75,24.167l56.5,40.667l-13.667,20.5
			l-16.917,25.083l-7.583,11.333l-51-33.667l-39.5-26l-46.5-30.417l-56.729-37.229c0,0-0.875-0.563-0.438-2
			s6.563-17.813,6.563-17.813s10.688-29.5,12.125-32.938S649,624.992,649,624.992z"/>
		<path fill="#FFD453" d="M614.5,710.158l102.5,66.75l90.167,60.167l-22.333,33.167L768,895.033l-23.125,32.375l-28.625,39.75
			l-8,10.5l-72-49l-92-62.375c0,0-0.583-1.792,0-3.292s10.417-23.167,10.417-23.167l22.25-49.167l17.167-36.75L614.5,710.158z"/>
		<path fill="#FFD453" d="M539.917,873.075l22.417,15.583l23.833,15.833l31.417,21.5l19.667,13.417c0,0,0.5,0.417,0,1.25
			s-15.417,17.333-15.417,17.333l-11.667,13.5L564,1022.075c0,0-0.917,0.542-1.542,0c-0.625-0.542-24.125-21.667-24.125-21.667
			L505.042,971.7l-20.958-19.042c0,0,0.083-1.292,0.625-1.792c0.542-0.583,11.875-14.792,11.875-14.792l19.292-25.833
			L539.917,873.075z"/>
		<path fill="#FFD453" d="M644,945.742c0,0,1.083-1.417,2.5-0.417s56.5,39,56.5,39l-13.333,18.083l-19.083,19.907l-14.75,15.593
			l-13.583,14.25c0,0-10.5,10.333-30.167,9.833c0,0-6.083-0.521-9.208-2.958s-11.625-11.875-11.625-11.875l-20.563-18
			c0,0-0.75-0.875,0-1.75s7.625-8.25,7.625-8.25l23.063-25.938L644,945.742z"/>
		<path fill="#FFD453" d="M498.667,983.742l23.417,20.167l32.5,28.833l-13.167,14.167l-36.333,38.833c0,0-4.167,4.083-1.417,6.75
			c0,0,3,2.544,7.333-1.25c4.333-3.795,31.583-33.333,31.583-33.333l18.194-19.374l13.056,11.624c0,0,9.917,9.5,13,12.417
			c3,2.75,3.917,3.833,3.917,3.833s3.583,4.917,0,9.5c-4,4.167-13.75,14-13.75,14l-16.167,16l-15.958,17
			c0,0-10,13.313-15.188,23.688c-3.875,11.188-7.25,20.188-7.25,20.188L509,1204.492l-18.5,53.167l-72.125-32.375l-58.25-26.875
			c0,0-0.292-0.833,0-1.333s16.125-27.417,16.125-27.417l32-53.667c0,0,25.75-40.5,28.333-43.417
			c2.833-3.833,33.083-47.167,33.083-47.167L498.667,983.742z"/>
		<path fill="#FFD453" d="M355.438,1205.742l132.729,60.333l-11.998,36.5l-17.502,52.5L444,1399.408c0,0-17.5,13.875-20,15.625
			c0,0-8.375,7.25-23.5,7.625c0,0-9,0.25-39.625-6.875l-59.5-27.75l-38.25-18l12.375-24l27.625-49.625l42-73.375L355.438,1205.742z"
			/>
		<path fill="#FFD453" d="M444,935.492c0,0,45.25,38.917,47.917,42.333c-2.75,4.083-11.667,17.417-11.667,17.417l-13.25,19
			l-14.5,20.833l-19.833,28.583l-22.25,32.25l-12.583,20.5l-16.083,27.417l-17.833,30.083l-18.833,31.833l-18.25,32.25
			l-49.083,85.917l-22.375,42.75l-74.75-34.75L127,1306.033l13-16.5l33.125-42.25l53.75-69.625l44.875-57.625
			c0,0,16.25-19.125,43.125-26.75c0,0,18.375-8.25,22-11.75l16.5-18.5l30.5-42.5l37.875-54.375L444,935.492z"/>
		<polygon fill="#FFD453" points="314.667,828.742 402.667,900.075 379.5,937.075 340.167,998.242 238,932.408 305.5,839.908 		"/>
		<polygon fill="#FFD453" points="409.25,906.283 436.5,930.033 417.625,958.033 393.25,991.533 372.625,1021.783 347.25,1003.033 
			373.375,962.033 		"/>
		<polygon fill="#FFD453" points="233.75,939.158 289.75,975.575 340.417,1008.492 367.583,1029.075 348.583,1054.408 
			331.333,1074.825 316,1083.492 191.75,1001.908 		"/>
		<path fill="#FFD453" d="M186.917,1008.992l54.5,35.167l65.083,43.289c0,0-20.583,7.961-25,11.878c0,0-16.167,13.5-23.333,24
			l-22.292,29.333l-18,22.75l-25.5,33l-50.375,65l-23,28.875l-77.375-38.75L6,1245.283l34.5-42.5l32.75-43.375
			c0,0,33.125-42.75,43.875-55.625c9.25-12.75,53.25-72.5,53.25-72.5L186.917,1008.992z"/>
		<path fill="#FFD453" d="M999.25,1892.158l107.25-96.25c0,0,23.25,14.75,41,41.75c17,27,38.75,62.75,38.75,62.75l-12.917,8.5
			l-13.833-19.833c0,0-2.167-3.167-5.333-1.167c0,0-1.833,1.833-0.167,5l34.5,52.167c0,0,15,19.333,6.833,44.333
			c0,0-2.667,4.333-8.333,8.667c-5.833,4.667-12.167,9-12.167,9l-95.333-107.167c0,0-2.833-4.667-8-0.5s-35,28-35,28
			L999.25,1892.158z"/>
		<path fill="#FFD453" d="M1231.917,1973.658l5.167,8.25l-7,5.417C1230.083,1987.325,1232.75,1980.742,1231.917,1973.658z"/>
		<polygon fill="#FFD453" points="2189.25,1471.658 2236.25,1432.408 2285.5,1496.658 2242.25,1534.158 		"/>
		<path fill="#FFD453" d="M2327.25,1360.408l15.25-12.75l37.25,48c0,0,43.75,57.5,46.75,65.75c-6.25,10.25-11,16.25-11,16.25
			l-36.5-36c0,0-39-49-42-57.75S2327.25,1360.408,2327.25,1360.408z"/>
		<path fill="#FFD453" d="M1464.833,1874.408l35.167-21.333l36.5,69c0,0,1.167,1.833,0,3c-1.167,1.167-28.667,19-28.667,19
			L1464.833,1874.408z"/>
		<path fill="#FFD453" d="M199.5,83.158c0,0,11-17.75,30.5-12.5l14,3.5c0,0,28.5,16,45.5,21c16.5,5.5,49,15,49,15s63.25,10,72,11.75
			c10.75,1.5,83.25,10.25,83.25,10.25l117.75,16.75c0,0,69,7.5,77.75,7.5c12,0,30.75,1.75,44.75-1.5
			c17.75-2.5,38.059-7.75,38.059-7.75s61.941-16.5,64.441-13.75c-1,5.75-38.5,106.25-38.5,106.25l-27.875,72.75l-38.625,92.25
			c0,0-26.167-17.083-29.333-18.417c-3.167-1.333-58.5-31.333-58.5-31.333l-48.5-25.667L545.5,308.908c0,0-30-11.167-36.333-13
			c-6.333-1.833-48.5-15.667-48.5-15.667s-21.5-6.5-37.167-8s-83.333-9.5-83.333-9.5l-78.333-8.5l-74.833-8
			c0,0-22.667-5.333-29.167-8.333s-30.5-13.833-30.5-13.833l10-20.833L172,136.408L199.5,83.158z"/>
		<path fill="#FFD453" d="M122,231.158c0,0,33.75,15.5,38.75,16.75c10.5,2.5,17.25,5,17.25,5l-9.75,66.75L86,287.158L122,231.158z"
			/>
		<polygon fill="#FFD453" points="186.75,255.158 331,270.408 425.75,281.158 450.5,286.658 379.25,424.158 215.5,342.158 
			176.75,323.158 		"/>
		<path fill="#FFD453" d="M291.5,671.408l54.833-72.5l95,76.833L502,726.075l-53.167,71l-56-43.833l-80.667-63.5l-21.083-16.25
			C291.083,673.492,290.626,672.564,291.5,671.408z"/>
		<path fill="#FFD453" d="M227,356.908l90.25,45.5l-34.25,68.5c0,0-1.333,3.833,0.667,5.333s6.333-1.167,6.833-2.167
			s34.333-68.5,34.333-68.5l50.167,27l-32.5,47l-38,55.833c0,0-4,6.167-0.333,7.833c3.667,1.667,7-1.667,8-3.667
			s24.167-35.667,24.167-35.667l45.833-67.167L429,460.075c0,0,12.667,7.333,22.833,14.833
			c11.833,9.667,49.833,37.667,49.833,37.667L641,619.075l-12,27.333l-108.875-76c0,0-4.625-3.5-7.25,0.125s1.375,6.25,1.375,6.25
			l111.875,78.5L610.5,697.158l-117.625-78c0,0-4.125-2-6.875,1.25c0,0-2.375,3.125,1.75,5.875s119,79.375,119,79.375
			s-12.875,28.75-16,35s-14.5,29.75-14.5,29.75l-78.583-59.333l-62-50.5l-87.333-71.167c0,0-3.458-3.125-6.458,1.125
			s-46,60.5-46,60.5L278,674.575l-55.833,61.5L165.5,687.908l-78-64l-37.667-29.667L62,580.408l37.167-42.333l24.333-28.833
			l13.833-18.167c0,0,32.167-48.167,36.833-60.667c5.5-11.667,24.167-54.333,24.167-54.333l11.167-26.542c0,0,0.625-0.875,2.25,0
			S227,356.908,227,356.908z"/>
		<path fill="#FFD453" d="M509.333,731.242l63.667,47.5l-33.333,74.667c0,0-10.833,22.167-13.333,25.333
			c-2.5,4.167-14,20.833-14,20.833s-19.667,28-34.833,46.667c-14.667-12.5-39.167-32.75-39.167-32.75L388,870.575l-118.25-95.917
			l-41.25-32.417l18.833-21.667l37.5-40.667l75.667,58.5l73.833,58.667l40.167,31.667l11.833,9.333c0,0,3.833,3.333,6.167-0.667
			c0,0,2.667-3-2-6.833l-34.333-27.5c0,0-1.833-1,0.167-2.833C458.333,798.408,509.333,731.242,509.333,731.242z"/>
		<path fill="#FFD453" d="M220.333,752.242l87,70.333l-52,71.667l-45,64l-99,139.667l-39-18.333c0,0-0.583-1.917,1.917-4.417
			s46.5-57.25,46.5-57.25s5.75-5.25-1.5-10s-54-34.75-54-34.75l39.25-48.083l22.5-33.167l61-91.5L220.333,752.242z"/>
		<path fill="#FFD453" d="M460,289.242l61,19.5l-58,103.5l-24.167,43l-51.667-26.833l23.333-45.167c0,0,37.5-71,40-76.167
			C453,301.908,460,289.242,460,289.242z"/>
		<path fill="#FFD453" d="M445.833,460.575l43-76.5l39.333-71.333c0,0,1-1,3.833,0s53.667,20.833,53.667,20.833l54.167,29l53,28.167
			L727,412.075c0,0,0.833,2.5,0,4.333s-20,45.667-20,45.667l-81.833-53.667L588,384.075c0,0-15.833-6.667-23.667-0.333
			c0,0-4.333,2.5-11.667,17.833c-7.833,15.5-15.667,30.833-15.667,30.833l-35.833-24c0,0-3.5-3-6.833-0.167
			c0,0-2.167,3.333,1.833,6.833c5,3.5,39.833,27.167,39.833,27.167l24.833,21.833l46.833,36.5c0,0,22.333,15.667,31.833,20.167
			c9.333,5.333,32.833,19.833,32.833,19.833s-0.167,1.667-1.5,4.833c-1.333,3.167-25.833,65.5-25.833,65.5l-72.667-54.667l-77-58.5
			L445.833,460.575z"/>
		<path fill="#FFD453" d="M543.75,437.908l21.75-42.875c0,0,6-10.625,17.5-3.75s30.375,19.375,30.375,19.375L703,469.783
			c0,0,0.625,1.625,0,3.125s-26.875,60.125-26.875,60.125l-56-33.75c0,0-38.5-29-47.875-36.875S543.75,437.908,543.75,437.908z"/>
		<path fill="#FFD453" d="M135,315.408l67,29.25c0,0-31.25,75-36.75,83.75c-5.5,10.5-26,43.75-26,43.75l-61.5-27.25L95,406.658
			L135,315.408z"/>
		<path fill="#FFD453" d="M780.667,1633.908l102.25,49.333l108.577,55.333l103.006,50.833l-30.75,26l-38.25,34.789l-38,34.961
			c0,0-59-37.5-98.5-52.25c-37-18.25-164-80-164-80l48.5-103.384L780.667,1633.908z"/>
		<polygon fill="#FFD453" points="538.25,1659.825 565.25,1606.158 591.5,1621.658 567.333,1673.908 		"/>
		<path fill="#FFD453" d="M409.833,1489.742c0,0,7-11.667,12.667-13.333s12.833-4.5,12.833-4.5l21.333,3.167l46.333,22.5
			l36.333,19.333l55.833,28.333l48.5,24.159c0,0,52.667,22.341,56.667,23.674c6.667,2.833,69.333,35.333,69.333,35.333
			l-11.833,26.667l-22,47.167l-21.333,45.667l-68.5-34.333l-70-35.5c0,0-0.667-0.75,0-2.333c0.667-1.583,23.75-50.833,23.75-50.833
			s3.75-5.333-0.167-8.083c-3.917-2.75-33.583-20.5-33.583-20.5s-4.667-1.583-6.667,2.833c-2.417,4.333-28.417,56.583-28.417,56.583
			l-43.167-21.917l-58.25-30.5c0,0-20.417-10.583-32.917-13.833l-8.25-2.167l5.5-28.5l7.5-39.417
			C401.333,1519.408,404.55,1497.104,409.833,1489.742z"/>
		<path fill="#FFD453" d="M293.5,1506.242l44.833-17.833c0,0,27.667-12,30.167-13.167c2.5-1.167,32.333-10.167,44.167-7.5
			c0,0-10.667,8.833-15.667,20.833c0,0-5.833,14.833-6.833,26.667l-7,36.167l-4.5,23.25c0,0-3.667,10.25-11.167,10.917
			c-7.5,0.667-18.667,0-23.333,0.667c-4.167,0.667-18.167,4.333-18.167,4.333L293.5,1506.242z"/>
		<path fill="#FFD453" d="M386.625,1596.033c0,0,24.375,7.625,29.625,10.125c5.25,2.625,56.25,28.875,56.25,28.875
			s1.375,1.5,0,3.125c-1.125,1.875-19.25,38-19.25,38s-1.625,4.375,1.25,6.25c0,0,5,1.25,6.5-1.75s19.375-39,19.375-39
			s1.25-1.375,2.5-0.75s29.875,15.5,29.875,15.5l50,25l43.375,21.25l52.125,26.5l51.375,25.875c0,0,1,1.125,0.625,1.875
			s-15.5,30.75-15.5,30.75l-35,67.5c0,0-1.083,0.25-2.333,0s-60.75-29.5-60.75-29.5l-39.167-18.75l-56.125-27.75l-74.5-35.5
			l-58.708-27.417c0,0-0.833-2.167-0.583-3c0.25-1.417,7.917-57.583,7.917-57.583s6.625-38.125,7.625-43.75
			S386.625,1596.033,386.625,1596.033z"/>
		<path fill="#FFD453" d="M720.75,1761.658c0,0,1.167-1.333,2.5-0.5s48.75,23.667,48.75,23.667l72.167,35.25l56.75,27.667
			l44.708,21.792c0,0,24.75,13.375,34.875,21.375c0,0,0.75,0.25-0.75,2s-27.5,30.125-27.5,30.125l-20.5,23.25l-29.625,33.5
			c0,0-13.375-8.5-20.25-11.875s-33.625-16.5-33.625-16.5l-52.375-26.5l-124.25-62.375c0,0-1.5-1.125-0.813-2.313
			s8.973-17.313,8.973-17.313L720.75,1761.658z"/>
		<path fill="#FFD453" d="M155,1555.658c0,0,78-23.741,85.5-26.746s44.75-18.754,44.75-18.754l32.25,83.583l-36.5,17.5
			l-41.667,20.333l-53.333,23.5L155,1555.658z"/>
		<path fill="#FFD453" d="M188.833,1663.908l38.5-16.833L272,1624.908c0,0,55-26.75,67-28.875s31.167-3.125,36-1.292
			c-1.333,5.333-8.833,38.667-8.833,38.667s-25.333,7.333-34.5,12l-42.979,18.5c0,0-7.563,2-5.563,7.938
			c0,0,3.188,3.563,9.813-0.375c8.125-3.25,25.938-11.313,25.938-11.313l36.125-15c0,0,8.833-3,10.083-2.583
			c-0.083,2.417-2.167,17.417-2.167,17.417l-15.167,112.833c0,0-23.583-0.583-39.833,2.25c-15.917,1.5-30.583,2.5-30.583,2.5
			s-1.167,0.167-1.25-2.083c-0.083-2.25-1.667-45.833-1.667-45.833s0.417-1.25,1.917-1.667c1.5-0.417,19.167-3.583,19.167-3.583
			l29-6c0,0,3.917-1.333,2.667-5.25c0,0-0.083-4-5.667-2.75c-5.25,0.833-46.5,9.167-46.5,9.167s-0.833-0.083-0.833-2.083
			s-0.75-24.083-0.75-24.083s-0.5-3.667-3.917-3.583c0,0-4.167-0.417-4.417,3.583l2.167,85.125c0,0-0.25,0.75-1.75,0.875
			s-37.875,5.75-37.875,5.75l-13.125-41.25L188.833,1663.908z"/>
		<path fill="#FFD453" d="M366.167,1725.651L431,1754.908l57.5,27.333l116.5,57.417l49.75,24c0,0,1.25,0.875,0,3
			s-19.5,40.75-19.5,40.75l-18.917,36.667l-12.833,23.833c0,0-1.75,1-2.917,0.583c-1.167-0.417-38.25-13.667-38.25-13.667
			s-0.917-0.583-0.167-1.917s11.667-20.917,11.667-20.917l17.583-32.5c0,0,2.167-5.833-1.167-7.917c-3.333-1.917-30-15.25-30-15.25
			L479,1835.408l-47.875-25.125l-45.375-23.75l-25.875-11L366.167,1725.651z"/>
		<path fill="#FFD453" d="M471.25,1841.158l111.5,56.75l-29.417,53.167L487,1918.242l-65.333-32.667l-72.5-35.378l9.5-66.122
			c0,0,11.167,2.667,97,48.833L471.25,1841.158z"/>
		<path fill="#FFD453" d="M52.833,159.742L129,193.575l-14.5,28l-39.333,59.333c0,0-24.167-8-36-6.833
			c-11.333,0-26.333,1.333-26.333,1.333l-4.167-38.236c0,0-2.167-36.931,7.167-48.264S39.333,158.575,52.833,159.742z"/>
		<path fill="#FFD453" d="M79.5,293.908l46.5,18.75l-34.167,81.125L70.5,441.408l-57.667-24.833c0,0-7.5-6.333-1.833-18.333
			c6.667-11.333,43.167-66.833,43.167-66.833L79.5,293.908z"/>
		<polygon fill="#FFD453" points="139.333,682.95 165.333,705.742 197.333,733.242 213.5,746.908 195.5,774.075 174,806.742 
			156.875,831.783 138.875,858.658 101,915.283 19.25,859.908 28.75,845.158 47.125,818.533 79.5,771.033 111.75,723.283 		"/>
		<path fill="#FFD453" d="M134.125,479.158l-30-13L74,450.658c0,0-37.25,42.75-38.5,44.25s-19.25,20-19.25,20L0,529.943v18.087
			l6.75,5.752l36.5,34.25l28.125-30l29.125-34.375l21.875-26.625c0,0,10-13.5,11-15.25S134.125,479.158,134.125,479.158z"/>
		<path opacity="0.7" fill="#FFD453" d="M421.667,1443.742l16-12c0,0,0,18.667,0.833,20.833c-6.167-2.667-17.083-8.042-17.083-8.042
			S421.407,1443.937,421.667,1443.742z"/>
		<polygon opacity="0.7" fill="#FFD453" points="407.042,1452.867 414.833,1456.242 400.875,1456.242 		"/>
		<polygon opacity="0.7" fill="#FFD453" points="400.875,1434.783 410.625,1434.783 406.688,1437.721 		"/>
		<polygon opacity="0.7" fill="#FFD453" points="207.833,52.575 215.5,57.408 207.833,59.908 		"/>
		<circle opacity="0.7" fill="#FFD453" cx="2568.375" cy="730.563" r="10"/>
		<polygon fill="#FFD453" points="206.326,0 317,60.408 339.333,22.908 350.094,0 		"/>
		<path fill="#FFD453" d="M149.754,0c35.88,22.373,80.338,50.15,88.746,55.658c15.75,10,55,28.5,64.25,30c6.25-9.75,10-18.5,10-18.5
			L191.139,0H149.754z"/>
		<g>
			<path fill="#FFD453" d="M3.038,277.193c0.226-0.053,0.388-0.094,0.462-0.119c1.5-0.5,1.75-1.667,1.75-1.667
				s-0.885-7.968-2.212-22.269V277.193z"/>
			<path fill="#FFD453" d="M195.5,51.908L185,39.242c0,0-31.004-19.832-60.629-39.242H18.437L3.038,22.49v179.545
				c2.824-11.807,7.212-16.627,7.212-16.627s7.75-10.5,21.25-24.25s26.5-7.25,26.5-7.25l74,33.333c0,0,54.25-105.083,59.75-117.555
				C197.25,57.216,195.5,51.908,195.5,51.908z"/>
		</g>
		<path fill="#FFD453" d="M39.5,285.908c-4.583-0.583-15.583,0.083-31.667,1.917c-1.479,0.168-3.096,0.455-4.793,0.816v106.04
			c1.247-2.845,2.46-4.606,2.46-4.606s61.75-94.083,64-97.833C64.667,289.408,44.417,286.325,39.5,285.908z"/>
		<polygon fill="#FFD453" points="6.5,422.575 3.04,426.247 3.04,515.479 20.5,499.075 35.167,482.658 51,464.408 64.167,448.242 		
			"/>
		<path fill="#FFD453" d="M52,613.158l-23.75-20.25L3.04,569.04v74.489c8.124,5.268,14.768,9.551,15.585,10.005
			c2.25,1.25,3.625,0.625,3.625,0.625s28.875-37.75,29.75-38.875S52,613.158,52,613.158z"/>
		<path fill="#FFD453" d="M15.583,661.325c0,0-5.449-3.509-12.543-8.075v30.542c4.492-6.874,12.333-18.854,13.043-19.8
			C17.083,662.908,15.583,661.325,15.583,661.325z"/>
		<path fill="#FFD453" d="M59.417,618.908c0,0-25.542,34.125-28.667,38.125S4.5,696.658,4.5,696.658l-1.46,2.182v77.188l12.21-17.37
			l32.875-45.75L73,675.658l18.833-30.417L59.417,618.908z"/>
		<path fill="#FFD453" d="M99,651.158c0,0-34.625,52.125-37.875,57.375s-23,32.75-23,32.75L3.04,791.015v76.848l3.126-4.121
			L48.5,801.408l39.667-58l19-28.167l25.333-37.5L99,651.158z"/>
		<polygon fill="#FFD453" points="14.5,867.158 3.04,882.391 3.04,1040.59 51.5,978.242 96.333,922.075 		"/>
		<path fill="#FFD453" d="M86.791,1046.575c0,0,21.625-26.417,24.292-30c2.167-2.667-0.583-4.5-0.583-4.5l-48.833-32H60.75
			l-57.71,74.544v180.803l22.46-27.139l16.5-21l26.667-35.542c0,0,9.833-12.667,10.75-13.833c0.5-1.333-0.25-2.167-0.25-2.167
			s-53.75-29.333-57.167-31.417c-3.667-1.917-1.75-6.417-1.75-6.417c3-4.25,8,0,8,0s53.75,29.667,55.667,30.667
			c1.917,1,2.543,0,2.543,0s16.207-20.417,17.624-22.167c1.417-1.583,0.25-2,0.25-2s-37.833-18.5-41.333-20.5
			s-1.333-6.25-1.333-6.25L86.791,1046.575z"/>
		<path fill="#FFD453" d="M127,1321.408l-123.96-61.98v235.735l99.835-137.755c0,0,23.375-32.5,24.125-33.375
			S127,1321.408,127,1321.408z"/>
		<path fill="#FFD453" d="M326.75,1415.158c-6.75-3-191-88.5-191-88.5l-38.5,52.75c0,0-65.75,90-83.75,114.5
			c-5.202,7.08-8.454,13.801-10.46,19.785v29.139l17.46,31.826l122-29.25l88-27.25l28.5-11.25l56.75-24.5c0,0,38-14.5,42.25-16.25
			s34.25-20.25,34.25-20.25S333.5,1418.158,326.75,1415.158z"/>
		<path fill="#FFD453" d="M3.04,1560.573v18.264l9.626-2.596C12.667,1576.241,7.98,1568.631,3.04,1560.573z"/>
		<path fill="#FFD453" d="M193,1705.908l-15.667-50.833l-16-51.167c0,0-9.167-29.333-14.167-45.833
			c-28.739,8.807-100.667,25.5-109.5,27.167c-4.515,0.181-20.721,4.226-34.626,7.896v324.748l21.96-8.811c0,0,62.167-27,76.5-33.833
			c13.833-7.833,36.833-35,36.833-35s13.917-15.667,19.167-21.5c5.25-5.833,19.25-15.25,25.583-18
			c6.25-2.75,31.417-11.417,33.833-12.25c2.333-0.583,2.417-1.417,2.417-1.417L193,1705.908z"/>
		<path fill="#FFD453" d="M2834.75,867.158c-0.75-11-9-64.25-9-64.25l-1.875-44c0,0-3.125-64.25-3.25-66.75
			c-0.375-2.5-7.75-71.063-7.75-71.063l-3.125,9.563l2.5,61.5H2776l-6.75-65.875l-3.375-26.625H2754.5l-0.75-15.125l34.375-2.5
			l-0.5-3c0,0-31.886,2.75-35.5,3c-1.375-2.375-1.292-20.708-1.292-20.708s30.75-2.75,34-3.667c2.667-1.667-0.5-2.083-0.5-2.083
			l-31.417,3.5l0.25-4.667l29.667-0.833l-0.083-0.667l-1.083-3.083c0,0,9.833-20.333,10.667-22.083c0.833-1.75,0.5-1.917,0.5-1.917
			l-2.667-0.25c0,0-0.167,2.167-0.583,2.917c-0.417,0.75-0.917,0.667-0.917,0.667l-2.833-1.167L2773,548.242l1.583,3.25
			l-16.917-0.333c0,0-1.25-4.583-1.927-9c-0.51-4.417-3.239-4.583-3.239-4.583l-11.083-0.417l-1-14.333l7.5-0.379
			c0,0-3.542-25.288-4.292-30.788s-6.5-18.125-6.5-18.125l-11.792-3.125l-9.667-4.833l4.333-14.917l2.917,1.083l2.417-8.583
			l-3.5-2.667c0,0,0.25-0.75,0-3.917c-0.75-2.833-10.5-2.083-10.5-2.083l-3.417,3l-3.583-1.833l-4.333,7.667l9,2.083l-7.667,14.667
			l-45.833-18.5l5.333-23c0,0-71.5-32.5-74.833-33.667c-3.333-1.167-41-8.833-41-8.833l-4.833,15.333l-12,7.5l-30.104-2.688
			l-33.021-3.354l-19.833-6.25l-11.75-4.5l-41.583-18.833c0,0-45.75-20.375-63.125-28.25c-18.625-6.5-32.125-16.5-32.125-16.5
			c-11.125-8.625-10.375-25-10.375-25c-1.75-19.625-9-24.125-13.625-28.25c-4.875-4.125-24.542-11.75-24.542-11.75
			s-49.333-21.375-53.208-22.625s-27.25-13-35-17.375s-28.125-12.75-28.125-12.75l-50.125-20.25c0,0-5.875-5.25-8.75-8.625
			s-0.375-3.375,2.375-4.625s2-3.75,2-3.75s-2.875-4.875-5.875-11.125c-3.875-5.375-9.208-7-9.208-7s-28.667-7.917-34.417-9.167
			s-12.25,1.667-12.25,1.667l-46.25,17.75c0,0-20.833,0.917-22.583,0.917s-2-0.667-2-0.667l20.667-13.333l-55.833,1l-70.333-14
			c0,0-33.167-6.833-37.25-7.167s-7.667,3.583-7.667,3.583l-11.417,47.75c0,0-58.25-3.25-60.5-3.417
			c-2.25-0.167-3.917,0.75-3.917,0.75s-4.833,5.5-7.083,9.083c-2.167,3.583-4.25,4-4.25,4s-10.667,5.333-12.167,6
			s-2.333,1.167-3.417,4c-1.083,2.833-3.5,1.25-3.5,1.25l-53.167-30.833l-21.25-10.583c0,0-12.25-6.333-17.083-8.917
			c-1.583-1.083-9-2.75-9-2.75l-42.75-6.833c0,0-36.667-9.083-40.833-9.858s-9.167-2.892-9.167-2.892l-38.75-23
			c0,0-15.25-7.333-18.5-9.083s-4.625-1.25-4.625-1.25s-41.75,4.125-46.875,4.333c-5,0.083-23.667,0-23.667,0L1292,77.075
			l-114.333-25.083c0,0-80-17.417-81-17.833s-1.917,0.75-1.917,0.75l-17.083,46.167c0,0-29.25,2.333-37.25,2.583
			c-7.917,0.75-11.833-1.833-11.833-1.833s-10.25-4.083-12.25-5.167s-2.75-0.083-2.75-0.083s-1.917,3.667-3.417,6.583
			s-5,0.667-5,0.667s-33.917-33.75-35-34.75s-1.833-2.667-1.833-2.667s0.167-1.333,0.833-4.083s0-5.5,0-5.5l-43.667-20
			c0,0-16.75-8.083-22.583-10.417c-5.583-1.667-12.333,4.417-12.333,4.417L872,30.158l-23.167,7.083c0,0-49.25,1.083-49.583,1.083
			c-0.333,0-22.5-6.75-22.5-6.75l-18-3.583c0,0-9,14.75-9.25,15.5s-1.833,0.75-1.833,0.75l-77.75-36.25c0,0,0.224-3.523,0.671-7.992
			H359.106L332.5,50.742l-21.167,37.5c0,0,22,7,32.5,9.333c10.5,2.333,47.333,8.167,47.333,8.167l47.333,6
			c40.167,4.333,64,8.667,64,8.667l84,12l64,7.5c0,0,53.125,4.125,62,4.125s35.375-4.875,37.875-5.5s58.25-14.25,58.25-14.25
			c35.875-7.375,62.375-4.875,76.208-3.542c13.75,2.333,80.542,13.792,80.542,13.792s15.5,3.5,35.625,7.375
			c20.625,4.5,43.75-5.875,43.75-5.875l22.375-13.875c21-16,44.042-8.25,44.042-8.25s199.583,46,228.833,52.75
			c26.25,4.5,74.5,18,90,26.25s51,51.25,51,51.25l42.333,70.417l22.333,38.333c20.667,41.333,63.667,65.833,63.667,65.833
			l65.333,32.333c0,0,60.167,25.167,64.333,27.167c3.5,0.833,10.5,4.167,25-0.333c14.5-4,33.407-19.375,33.407-19.375
			s13.093-11,19.593-16.986c6.5-5.986,16.75-10.055,16.75-10.055c9.833-4.333,23-3.167,23-3.167
			c9.583,1.25,18.583,5.583,18.583,5.583l51.167,20.333l16.333-66.667l38.25-157.833c0,0,11.729-48.333,13.542-54.833
			c1.688-6.625,6.188-5.438,6.188-5.438c4.313,1,2.354,7.104,2.354,7.104l-16.833,67.833l-34.583,142.25l-17,70.171l57,25.829
			l27.25-79.985l16.739-50.39c0,0,7.511-24,15.261-47.75c8-23.125,15.5-34.125,15.5-34.125c6.875-12.5,16.5-17.625,16.5-17.625
			c11.375-7.875,28.5-6.375,28.5-6.375s16.25,2.25,40,7.25c23.75,3.875,34.5,9.5,34.5,9.5c29.5,11.875,48.625,24.875,48.625,24.875
			s18.25,12,28.75,18.125c8.75,7,38.625,24.5,44.625,27.375c5.25,3,17,7.75,17,7.75s13.625,5.375,17.625,7.375
			c3,2.25,23.5,11.125,23.5,11.125l63.625,22.594l80.25,27.281l65.875,22.375c0,0,93.75,35.5,95.375,36.125s8,4.75,14.25,13.5
			c6.375,8.875,4,18.583,4,18.583l-17.5,38.667l-22.167,58.833l-19.208,57.417l-11.125,31.125c0,0-2.875,8.375-4.875,10.75
			s-13,10.625-13,10.625s-5,3.125-13.5,9.125c6.125,8.375,3.75,17.875,3.75,17.875l33.625,20.875l50.5,33.25
			c0,0,12.75,6.875,18.75,13.25s9.5,17.75,10.625,28.125S2697.5,861.2,2697.5,861.2l-27.5,56.333l-23.5,48.375l-12.25,23.875
			l-32.875,61.625l-28.875,59.5c0,0-15.375,29.125-21.5,41.25s-22.125,37-24.75,41.25s-15.125,16.375-15.125,16.375
			s15,16.75,17.625,19.75s0.75,6.25,0.75,6.25c-3.5,3.25-6.875-0.5-6.875-0.5l-17.5-19.875l-52.5,42.125l-48,39.25l-55.875,46.125
			l50.125,65.5c0,0,33.25,47.375,35,50.125s0.875,4.5,0.875,4.5s-12.125,17.875-15.125,21.875s-5.5,1.375-5.5,1.375
			s-34.875-34.25-41.25-40.875s-38.875-52-38.875-52l-12-28.875l-37.25,29.25l-42.75,34.25c0,0,47.75,61.75,51.125,65.625
			c2.625,3.875-0.5,6.667-0.5,6.667l-46,38.833c0,0,32.375,45.375,36,50.75c1.375,5.875-4.875,4-4.875,4l-7.625-10.25l-30.375-42.75
			l-22.5-24.75l-34.083-40.083c0,0-2,2.167-8.5,7.208s-30.542,18.625-30.542,18.625l-90.792,49.667l-75.667,41l-43.333,23.333
			l-59,32l-140,75.333l-227.75,125.25l12.25,22.917l25.083,47.667c0,0,1.583-0.75,15.417-8.667
			c16.167-8.083,26.333-1.167,26.333-1.167s9.917,10.333,12.667,14.083c2.75,3.833-0.75,5.833-0.75,5.833c-2.5,1.75-6-0.5-6-0.5
			s-2.417-2.833-9.333-10.833c-7-8-26.5,4.417-26.5,4.417c-3.083,1.5-27.625,17.229-27.625,17.229l-16.875,11.625l3,5.5
			l17.688,29.688c0,0,35.271-18.167,39.313-20.083c4.042-1.917,6.125,0.75,6.125,0.75c1.958,3.542-0.5,5.708-0.5,5.708l-7.625,4.083
			c0,0-30.333,15.5-31.792,16.167c-1.458,0.667-1.042,1.833-1.042,1.833s4.858,8.664,7.526,13.333h12.23
			c9.776-5.127,24.417-12.806,26.515-13.917c3.188-1.688,5.563,1.188,5.563,1.188c1.938,3.625-1,5.5-1,5.5
			s-6.344,3.359-13.669,7.229h86.877l5.729-6.042l8.304,6.042h4.034l-10.61-7.75c0,0,21.833-21.042,22.542-22.125
			c0.625-1.083-0.792-1.875-1.417-1.458c-0.625,0.417-2.792,0.292-2.792,0.292s-2.708-1.792-3.292-2.583
			c-0.583-0.792-1.542-1.375,0.083-3.833c1.625-2.458,0.458-4.083,0.458-4.083s-3.25-3.125-4.375-5s-1.875-2.125-4-2.375
			s-3.125-2.625-3.125-2.625l8.813-8.688l-9.938-10.938c0,0-8.563,5.875-9.563,6.625s-2.313,0-2.313,0s-3.625-3.5-4.625-4.625
			s-2.25-0.438-2.25-0.438s-7.938,6.188-8.75,6.813c-0.5,0.75-2.25,0.625-2.25,0.625s-15.813-17-16.438-17.813
			s-0.313-2.125,0.5-2.75c0.563-0.375,0.438-1.375,0.438-1.375s-12.125-14.5-12.625-15.438s0-1.5,0-1.5l28.563-18.5
			c0,0,1.875,2.563,2.813,4.188c0.688,1.25,2.75,1.063,2.75,1.063l1.625-1c1.938-0.75,2.375,0.438,2.375,0.438l6.75,7.125
			l21.375-12.25c0,0,14.625,14.813,15.375,15.563s1.5,0.563,1.5,0.563s26.375-20.563,26.813-20.875s0.063-1.063,0.063-1.063
			l-41.375-65.75l8.625-5.375l41.125,64.25c0,0,23.25,12.375,27.875,14.75s6.25,1.75,6.25,1.75l28.167-15.75l23.667-22.417
			l9.75,11.833c0,0,11.917,11.417,14.667,14.25c3,1.417,20-0.75,20-0.75l13.333-13.917c0,0,8.167-10.417,10-12.75
			c1.25-1.833,1.583-4,1.583-4s-0.167-5.667,0.417-12.917c0.083-7.333,7.167-11.083,7.167-11.083l11.583-5.917l-31.458-48.333
			l-24.125-29.125l-12.833-17.875l8.833-4.667l-7-13.583l11.25-6.917c0,0,1.25,2.454,2.833,5.167c1.333,2.712,4.75,1.333,4.75,1.333
			l8.417-4.5l8.917,19.667c0,0,25.417-13.75,27.417-14.917c1.25-0.583,1.083-1.667,1.083-1.667l-7.5-13.083l13.896-6.646
			l4.813,9.625l4.875-3.563c0,0,7.875,10.125,9.438,11.875c0.938,1.438-0.063,2.125-0.063,2.125s-8.563,7.25-10.313,8.563
			c-0.375,1,2,8.625,2,8.625s22.875,22.313,23.625,23.438c0.438,1.063-0.375,1.313-0.375,1.313l-14.5,11.438l9.625,10.313
			l20.313-15.375c0,0,2.188,2.313,5.563,6.688c3.875,3.938,4.688,6.438,4.688,6.438l-11.813,13.875l9.438,11l5.875-6.688
			c0,0,1.625,2,3.563,4.25c1.75,2.25,2.875,1.375,2.875,1.375s7.063-1.625,6.688-1.625s18.188,24.625,18.188,24.625l7.688-3.313
			c0,0,7.188,7.313,9.25,9.313c0.75,1.438,2.563,0.875,2.563,0.875l10.427-8.25c0,0,0.886,1.5,2.261,3.063
			c0.75,1.5,2.313,0.938,2.313,0.938l10.875-8.75c0,0,5.188,8.625,6.563,10.688c0.938,1.875,0.188,2.563,0.188,2.563l-9.688,9.625
			l8.125,8.25l16.313-15l2.563,3.063c1.375,1.438,0.313,2.5,0.313,2.5l-23.938,25.813l6.438,7.813l30.125-28.625l0.688,0.563
			c3,3.875,8.563,7,11.188,7.25c2.625,0.188,7.25-1.563,7.25-1.563l3.813,11.063l2.563-0.813l0.125-13l8.75-7.938l4,2
			c7.375,4.438,8.125-1.938,8.563-3.438c0.063-1.688,1.688-3.938,1.688-3.938l9.125,6.688l1.188-0.875
			c2-2.875-1.25-5.563-2.625-7.438c-1.438-1.938-1.5-3.5-1.5-3.5l3.188-3.063l-3.125-2.688l-13.438,11.75l-21.5-20.5l14.375-14.063
			c0,0-6.75-7.375-8.188-9.25s-3.125-0.375-3.125-0.375l-13.688,12.313l-26.875-33.875l18.125-18.875l-19.333-36.417l21.125-10.375
			l0.542,0.542c0.25,6.417,7.583,7.25,7.583,7.25c7.083,0.583,13.167-6.75,13.167-6.75c1.667-2.25,3.917-0.167,3.917-0.167
			c10.417,6.667,16.083,1.667,16.083,1.667c3.917-5.417,1.833-12,1.833-12c-3.25-6.25-13.083-25.5-13.083-25.5
			s-15.25-16.583-21.417-23.417c-6-5.75-13.917-15.25-14.75-17.25s-6.333-19.5-6.333-19.5l16.417-8.5l7.25,14l24.75,27.167
			c0,0,17.417,18.25,18.667,19.667c1.25,1.417,0.25,2.25,0.25,2.25l-1.333,3.417l10.5,6.333l6.083-9c0,0,6.417,3,21.75,11.167
			c15.167,8.25,19.75,4.5,19.75,4.5c1.833-1.833,9.083-1.583,9.083-1.583l7.667-19.667l10.75,2.917l-6.667,11.833
			c0,0,2.167,1,5.333,3c3.167,2.333,6.5,0.5,6.5,0.5l9.708-12.792l5,2.333c0,0,7.583-9.333,8.917-10.958
			c0.333,1.333,2.708,5.833,3.625,7.042c0.917,1.208,6.083,4.583,6.083,4.583l-4.917,2.375l0.083,1.958l9.5-1.875l-0.417-3.542
			l3.833-1.958l14.75,8l-80.375-58.25l2.875-2.375l-21.5-12.75l4.375-4.25l13.75,6.125c19.375,6.5,17.375-8.375,17.375-8.375
			c1.375-8.5-14.625-21.375-14.625-21.375l-23.625-10.625l9.875-13.875l-5.75-4.875l10.5-3.5c0,0,26.625,16.75,29,18.125
			s5.853,0.625,5.853,0.625l29.606,39.625l30.083,42.583l6-3.5l35.25,47c0,0-5,6.917-6.417,8.917c-1.333,2-1.917,3.75,1.25,7.833
			c3.333,4.083,7.333,2.167,7.333,2.167l9.5-9.583l-44.667-57.5l18.583-14.417l-33.083-40.833l36.583-29.917l37.625,24.313
			c0,0,0.438-0.75,2.625-3.375c2.75-1.688,9.125-1.063,9.125-1.063l47.875,58.125l-4.5,2.833l8.083,10.167l22.667-26.25
			c0,0-34.583-48.167-35.75-49.833c-1.667-1.667-0.625-2.042-0.625-2.042c1.875,1.75,22.875,6.25,25.375-5.25
			c2.375-11.5-0.625-14.625-2-16.875c-0.125-3.125,2.75-2,2.75-2l51.5,30.75l64,28.25l5-5.5l54.5,32.25l11.5-19.5l-175-116.833
			l-5.667-31.167l94.667-173l40.333,52.667l-4.833,19.5l23.333,10.5l33.167-62.833c0,0-22.667-10.667-27.167-13.5
			c-3.333-1.833-20.167-3.667-20.167-3.667s-47.833-52.495-50.167-55.333c-2.333-2.838-3-7.667-3-7.667l29.167,14.167l5.167-7.5
			l15.833,9.167l29.5-47.833l-18.833-9.667l6.542-11.375l11.125,4.25l15.875-29.75l-13.375-6.5l8.5-14.75c0,0,6.375,5.125,10,7.25
			s6.5,3.5,6.5,3.5l3.75-4.875l-9-13l4.75-8.75l-7.25-4.5l33.5-70.5l10.25-38.25l34.5-34.75l58.833-127.333l34.5,12.833
			l9.167,169.833l28.667-1.333C2841.667,1000.908,2835.5,878.158,2834.75,867.158z"/>
		<path fill="#FFD453" d="M1422.3,2008.075h68.792l34.074-17.833l-25.333-43.5l-30.333-48.167l-69.715,37.333
			c0,0-3.702,1.75-6.118,3.417c-2.417,1.667-0.667,7.083-0.667,7.083L1422.3,2008.075z"/>
		<polygon fill="#FFD453" points="1534.149,2008.075 1528.75,1998.158 1509.848,2008.075 		"/>
		<path fill="#FFD453" d="M1414.483,2008.075l-9.483-19.542l-14.333-30.375c0,0-1.167-1.75-5.167-12.083
			c-3.333-10.417,7.875-14.542,7.875-14.542l72.375-38.375l-8.25-13.875c0,0-35,20.125-36.625,21s-4.375,3.5-8.375,8
			c-3.5,5-18.375,14.25-18.375,14.25L1311,1974.408l-52.625,32.667c0,0-0.574,0.364-1.576,1H1414.483z"/>
		<path fill="#FFD453" d="M1204.5,1971.158c1.625,24.25-11.625,30.75-11.625,30.75l-8.184,6.167h14.156l9.027-6.042
			c0,0,4.75-7.875,9.375-19.125s-3.375-38.375-3.375-38.375l-23.125-37.875l-14.25,7.875c0,0,9.75,13.625,19.75,29.5
			S1204.5,1971.158,1204.5,1971.158z"/>
		<path fill="#FFD453" d="M1106.368,2008.075h57.315c-9.925-11.22-38.853-43.938-41.266-46.833
			c-2.917-3.5-47.667-53.417-47.667-53.417l-32.667,25.917l22.417,26L1106.368,2008.075z"/>
		<path fill="#FFD453" d="M933.729,2008.075h160.902c-15.293-20.749-70.464-80.333-70.464-80.333s-26.667-25-29.333-27
			c-2.667-2-3.333-1.083-3.333-1.083l-78,87.667c0,0,4.833,4.583,10,9.083C924.803,1997.543,928.672,2002.019,933.729,2008.075z"/>
		<path fill="#FFD453" d="M877.375,2008.075c9.66-11.286,17.113-19.906,18.625-21.417c-3.75-5.75-54.5-29-54.5-29l-43-21.75
			l-132-65.574L614,1973.658l70.858,34.417H877.375z"/>
		<polygon fill="#FFD453" points="666.109,2008.075 610,1981.075 596.377,2008.075 		"/>
		<path fill="#FFD453" d="M350,1980.741l56.833,27.167c0,0,0.12,0.058,0.348,0.167h175.49l15.829-31.417c0,0-15.25-5-23.75-8.065
			c-7-1.065-69-31.435-69-31.435l-157.75-78l-8.5,66.75v26.667C340.333,1976.575,350,1980.741,350,1980.741z"/>
		<path fill="#FFD453" d="M379.606,2008.075c-15.895-7.681-26.734-12.942-28.106-13.667c-6-3.167-16.5-5.667-16.5-5.667
			c-5.167,2.333-8.167,13.5-8.167,13.5l-0.756,5.833H379.606z"/>
		<path fill="#FFD453" d="M314.246,2008.075l7.129-51.542l-105.875-18.25l-27.875-5.25c0,0-6.5,58-7,61s-4.125,3.375-4.125,3.375
			c-3.625,0-3.875-4.625-3.875-4.625l6.5-61c0,0-7.875-3-12.875-4.375s-4.5-5.625-4.5-5.625c1.75-4.25,7.125-2.5,7.125-2.5
			l12.375,4.125l20.75,4l121,21l7.25-48.5l12.75-93.125l4-25.625c0,0-24,1.417-53.5,4c-29.5,1.583-71.5,10.75-71.5,10.75
			s-29.333,9.333-38.333,14s-19.333,13.333-19.333,13.333s-25,28.333-31.333,35.917c-6.333,7.25-27.667,24.083-27.667,24.083
			L26,1917.908l-22.96,9.332v63.208c3.502,5.835,7.201,11.86,10.869,17.626H314.246z"/>
		<path fill="#FFD453" d="M923.298,2009.189c-7.783-7.816-16.298-14.531-16.298-14.531l-12.625,14.531H923.298z"/>
	</g>
</g>
<g id="Layer_4">
	<g>
		<path fill="#9BC8EB" d="M1613.583,153.992l21.25,10.583L1688,195.408c0,0,2.417,1.583,3.5-1.25c1.083-2.833,1.917-3.333,3.417-4
			s12.167-6,12.167-6s2.083-0.417,4.25-4c2.25-3.583,7.083-9.083,7.083-9.083s1.667-0.917,3.917-0.75
			c2.25,0.167,60.5,3.417,60.5,3.417l11.417-47.75c0,0,3.583-3.917,7.667-3.583s37.25,7.167,37.25,7.167l70.333,14l55.833-1
			l-20.667,13.333c0,0,0.25,0.667,2,0.667s22.583-0.917,22.583-0.917l46.25-17.75c0,0,6.5-2.917,12.25-1.667
			s34.417,9.167,34.417,9.167s5.333,1.625,9.208,7c3,6.25,5.875,11.125,5.875,11.125s0.75,2.5-2,3.75s-5.25,1.25-2.375,4.625
			s8.75,8.625,8.75,8.625l50.125,20.25c0,0,20.375,8.375,28.125,12.75s31.125,16.125,35,17.375s53.208,22.625,53.208,22.625
			s19.667,7.625,24.542,11.75c4.625,4.125,11.875,8.625,13.625,28.25c0,0-0.75,16.375,10.375,25c0,0,13.5,10,32.125,16.5
			c17.375,7.875,63.125,28.25,63.125,28.25l41.583,18.833l11.75,4.5l19.833,6.25l33.021,3.354l30.104,2.688l12-7.5l4.833-15.333
			c0,0,37.667,7.667,41,8.833c3.333,1.167,74.833,33.667,74.833,33.667l-5.333,23l45.833,18.5l7.667-14.667l-9-2.083l4.333-7.667
			l3.583,1.833l3.417-3c0,0,9.75-0.75,10.5,2.083c0.25,3.167,0,3.917,0,3.917l3.5,2.667l-2.417,8.583l-2.917-1.083l-4.333,14.917
			l9.667,4.833l11.792,3.125c0,0,5.75,12.625,6.5,18.125s4.292,30.788,4.292,30.788l-7.5,0.379l1,14.333l11.083,0.417
			c0,0,2.729,0.167,3.239,4.583c0.677,4.417,1.927,9,1.927,9l16.917,0.333l-1.583-3.25l12.833-20.25l2.833,1.167
			c0,0,0.5,0.083,0.917-0.667c0.417-0.75,0.583-2.917,0.583-2.917l2.667,0.25c0,0,0.333,0.167-0.5,1.917
			c-0.833,1.75-10.667,22.083-10.667,22.083l1.083,3.083l0.083,0.667l-29.667,0.833l-0.25,4.667l31.417-3.5
			c0,0,3.167,0.417,0.5,2.083c-3.25,0.917-34,3.667-34,3.667s-0.083,18.333,1.292,20.708c3.614-0.25,35.5-3,35.5-3l0.5,3
			l-34.375,2.5l0.75,15.125h11.375l3.375,26.625l6.75,65.875h36.25l-2.5-61.5l3.125-9.563c0,0,7.375,68.563,7.75,71.063
			c0.125,2.5,3.25,66.75,3.25,66.75l1.875,44c0,0,8.25,53.25,9,64.25s6.917,133.75,6.917,133.75l-28.667,1.333l-9.167-169.833
			l-34.5-12.833L2710.5,946.908l-34.5,34.75l-10.25,38.25l-33.5,70.5l7.25,4.5l-4.75,8.75l9,13l-3.75,4.875c0,0-2.875-1.375-6.5-3.5
			s-10-7.25-10-7.25l-8.5,14.75l13.375,6.5l-15.875,29.75l-11.125-4.25l-6.542,11.375l18.833,9.667l-29.5,47.833l-15.833-9.167
			l-5.167,7.5L2534,1210.575c0,0,0.667,4.829,3,7.667c2.333,2.838,50.167,55.333,50.167,55.333s16.833,1.833,20.167,3.667
			c4.5,2.833,27.167,13.5,27.167,13.5l-33.167,62.833l-23.333-10.5l4.833-19.5l-40.333-52.667l-94.667,173l5.667,31.167l175,116.833
			l-11.5,19.5l-54.5-32.25l-5,5.5l-64-28.25l-51.5-30.75c0,0-2.875-1.125-2.75,2c1.375,2.25,4.375,5.375,2,16.875
			c-2.5,11.5-23.5,7-25.375,5.25c0,0-1.042,0.375,0.625,2.042c1.167,1.667,35.75,49.833,35.75,49.833l-22.667,26.25l-8.083-10.167
			l4.5-2.833l-47.875-58.125c0,0-6.375-0.625-9.125,1.063c-2.188,2.625-2.625,3.375-2.625,3.375l-37.625-24.313l-36.583,29.917
			l33.083,40.833l-18.583,14.417l44.667,57.5l-9.5,9.583c0,0-4,1.917-7.333-2.167c-3.167-4.083-2.583-5.833-1.25-7.833
			c1.417-2,6.417-8.917,6.417-8.917l-35.25-47l-6,3.5l-30.083-42.583l-29.606-39.625c0,0-3.478,0.75-5.853-0.625
			s-29-18.125-29-18.125l-10.5,3.5l5.75,4.875l-9.875,13.875l23.625,10.625c0,0,16,12.875,14.625,21.375c0,0,2,14.875-17.375,8.375
			l-13.75-6.125l-4.375,4.25l21.5,12.75l-2.875,2.375l80.375,58.25l-14.75-8l-3.833,1.958l0.417,3.542l-9.5,1.875l-0.083-1.958
			l4.917-2.375c0,0-5.167-3.375-6.083-4.583c-0.917-1.208-3.292-5.708-3.625-7.042c-1.333,1.625-8.917,10.958-8.917,10.958l-5-2.333
			l-9.708,12.792c0,0-3.333,1.833-6.5-0.5c-3.167-2-5.333-3-5.333-3l6.667-11.833l-10.75-2.917l-7.667,19.667
			c0,0-7.25-0.25-9.083,1.583c0,0-4.583,3.75-19.75-4.5c-15.333-8.167-21.75-11.167-21.75-11.167l-6.083,9l-10.5-6.333l1.333-3.417
			c0,0,1-0.833-0.25-2.25c-1.25-1.417-18.667-19.667-18.667-19.667l-24.75-27.167l-7.25-14l-16.417,8.5c0,0,5.5,17.5,6.333,19.5
			s8.75,11.5,14.75,17.25c6.167,6.833,21.417,23.417,21.417,23.417s9.833,19.25,13.083,25.5c0,0,2.083,6.583-1.833,12
			c0,0-5.667,5-16.083-1.667c0,0-2.25-2.083-3.917,0.167c0,0-6.083,7.333-13.167,6.75c0,0-7.333-0.833-7.583-7.25l-0.542-0.542
			l-21.125,10.375l19.333,36.417l-18.125,18.875l26.875,33.875l13.688-12.313c0,0,1.688-1.5,3.125,0.375s8.188,9.25,8.188,9.25
			l-14.375,14.063l21.5,20.5l13.438-11.75l3.125,2.688l-3.188,3.063c0,0,0.063,1.563,1.5,3.5c1.375,1.875,4.625,4.563,2.625,7.438
			l-1.188,0.875l-9.125-6.688c0,0-1.625,2.25-1.688,3.938c-0.438,1.5-1.188,7.875-8.563,3.438l-4-2l-8.75,7.938l-0.125,13
			l-2.563,0.813l-3.813-11.063c0,0-4.625,1.75-7.25,1.563c-2.625-0.25-8.188-3.375-11.188-7.25l-0.688-0.563l-30.125,28.625
			l-6.438-7.813l23.938-25.813c0,0,1.063-1.063-0.313-2.5l-2.563-3.063l-16.313,15l-8.125-8.25l9.688-9.625
			c0,0,0.75-0.688-0.188-2.563c-1.375-2.063-6.563-10.688-6.563-10.688l-10.875,8.75c0,0-1.563,0.563-2.313-0.938
			c-1.375-1.563-2.261-3.063-2.261-3.063l-10.427,8.25c0,0-1.813,0.563-2.563-0.875c-2.063-2-9.25-9.313-9.25-9.313l-7.688,3.313
			c0,0-18.563-24.625-18.188-24.625s-6.688,1.625-6.688,1.625s-1.125,0.875-2.875-1.375c-1.938-2.25-3.563-4.25-3.563-4.25
			l-5.875,6.688l-9.438-11l11.813-13.875c0,0-0.813-2.5-4.688-6.438c-3.375-4.375-5.563-6.688-5.563-6.688l-20.313,15.375
			l-9.625-10.313l14.5-11.438c0,0,0.813-0.25,0.375-1.313c-0.75-1.125-23.625-23.438-23.625-23.438s-2.375-7.625-2-8.625
			c1.75-1.313,10.313-8.563,10.313-8.563s1-0.688,0.063-2.125c-1.563-1.75-9.438-11.875-9.438-11.875l-4.875,3.563l-4.813-9.625
			l-13.896,6.646l7.5,13.083c0,0,0.167,1.083-1.083,1.667c-2,1.167-27.417,14.917-27.417,14.917l-8.917-19.667l-8.417,4.5
			c0,0-3.417,1.379-4.75-1.333c-1.583-2.712-2.833-5.167-2.833-5.167l-11.25,6.917l7,13.583l-8.833,4.667l12.833,17.875
			l24.125,29.125l31.458,48.333l-11.583,5.917c0,0-7.083,3.75-7.167,11.083c-0.583,7.25-0.417,12.917-0.417,12.917
			s-0.333,2.167-1.583,4c-1.833,2.333-10,12.75-10,12.75l-13.333,13.917c0,0-17,2.167-20,0.75
			c-2.75-2.833-14.667-14.25-14.667-14.25l-9.75-11.833l-23.667,22.417l-28.167,15.75c0,0-1.625,0.625-6.25-1.75
			s-27.875-14.75-27.875-14.75l-41.125-64.25l-8.625,5.375l41.375,65.75c0,0,0.375,0.75-0.063,1.063s-26.813,20.875-26.813,20.875
			s-0.75,0.188-1.5-0.563s-15.375-15.563-15.375-15.563l-21.375,12.25l-6.75-7.125c0,0-0.438-1.188-2.375-0.438l-1.625,1
			c0,0-2.063,0.188-2.75-1.063c-0.938-1.625-2.813-4.188-2.813-4.188l-28.563,18.5c0,0-0.5,0.563,0,1.5s12.625,15.438,12.625,15.438
			s0.125,1-0.438,1.375c-0.813,0.625-1.125,1.938-0.5,2.75s16.438,17.813,16.438,17.813s1.75,0.125,2.25-0.625
			c0.813-0.625,8.75-6.813,8.75-6.813s1.25-0.688,2.25,0.438s4.625,4.625,4.625,4.625s1.313,0.75,2.313,0s9.563-6.625,9.563-6.625
			l9.938,10.938l-8.813,8.688c0,0,1,2.375,3.125,2.625s2.875,0.5,4,2.375s4.375,5,4.375,5s1.167,1.625-0.458,4.083
			c-1.625,2.458-0.667,3.042-0.083,3.833c0.583,0.792,3.292,2.583,3.292,2.583s2.167,0.125,2.792-0.292
			c0.625-0.417,2.042,0.375,1.417,1.458c-0.708,1.083-22.542,22.125-22.542,22.125l10.401,7.598h1224.583V0H670.737
			c0.19,0.829-0.82,7.992-0.82,7.992l77.75,36.25c0,0,1.583,0,1.833-0.75s9.25-15.5,9.25-15.5l18,3.583c0,0,22.167,6.75,22.5,6.75
			c0.333,0,49.583-1.083,49.583-1.083L872,30.158l18.583-19.333c0,0,6.75-6.083,12.333-4.417
			C908.75,8.742,925.5,16.825,925.5,16.825l43.667,20c0,0,0.667,2.75,0,5.5s-0.833,4.083-0.833,4.083s0.75,1.667,1.833,2.667
			s35,34.75,35,34.75s3.5,2.25,5-0.667s3.417-6.583,3.417-6.583s0.75-1,2.75,0.083s12.25,5.167,12.25,5.167
			s3.917,2.583,11.833,1.833c8-0.25,37.25-2.583,37.25-2.583l17.083-46.167c0,0,0.917-1.167,1.917-0.75s81,17.833,81,17.833
			L1292,77.075l70.333,16.667c0,0,18.667,0.083,23.667,0c5.125-0.208,46.875-4.333,46.875-4.333s1.375-0.5,4.625,1.25
			s18.5,9.083,18.5,9.083l38.75,23c0,0,5,2.117,9.167,2.892s40.833,9.858,40.833,9.858l42.75,6.833c0,0,7.417,1.667,9,2.75
			C1601.333,147.658,1613.583,153.992,1613.583,153.992z"/>
		<polygon fill="#9BC8EB" points="1661.603,2007.923 1675.282,2007.923 1667.188,2002.033 		"/>
	</g>
</g>
</svg>
