<?xml version="1.0" encoding="utf-8"?>
<!-- Generator: Adobe Illustrator 17.0.0, SVG Export Plug-In . SVG Version: 6.00 Build 0)  -->
<!DOCTYPE svg PUBLIC "-//W3C//DTD SVG 1.1//EN" "http://www.w3.org/Graphics/SVG/1.1/DTD/svg11.dtd">
<svg version="1.1" id="Layer_1" xmlns="http://www.w3.org/2000/svg" xmlns:xlink="http://www.w3.org/1999/xlink" x="0px" y="0px"
	 width="10px" height="10px" viewBox="0 0 8.621 8.621" enable-background="new 0 0 8.621 8.621" xml:space="preserve">
<g>
	<circle fill="#3E96D2" cx="4.31" cy="4.31" r="4.31"/>
	<g>
		<path fill="#FFFFFF" d="M4.271,7.217C3.753,5.885,3.042,4.624,2.766,3.204c-0.162-0.833,0.426-1.621,1.27-1.789
			C4.81,1.261,5.681,1.814,5.839,2.592c0.05,0.245,0.07,0.534-0.012,0.761c-0.471,1.3-0.976,2.587-1.47,3.879
			C4.328,7.227,4.299,7.222,4.271,7.217z M4.291,2.149c-0.455-0.001-0.79,0.325-0.792,0.77c-0.002,0.437,0.344,0.79,0.78,0.794
			C4.718,3.717,5.06,3.376,5.063,2.932C5.066,2.47,4.751,2.15,4.291,2.149z"/>
		<path fill="#3E96D2" d="M4.321,2.149C4.78,2.15,5.095,2.47,5.092,2.932C5.09,3.376,4.748,3.717,4.309,3.713
			C3.873,3.709,3.527,3.357,3.528,2.92C3.53,2.475,3.866,2.149,4.321,2.149z"/>
	</g>
</g>
</svg>
