<?xml version="1.0" encoding="utf-8"?>
<!-- Generator: Adobe Illustrator 17.0.0, SVG Export Plug-In . SVG Version: 6.00 Build 0)  -->
<!DOCTYPE svg PUBLIC "-//W3C//DTD SVG 1.1//EN" "http://www.w3.org/Graphics/SVG/1.1/DTD/svg11.dtd">
<svg version="1.1" id="Layer_1" xmlns="http://www.w3.org/2000/svg" xmlns:xlink="http://www.w3.org/1999/xlink" x="0px" y="0px"
	 width="10px" height="10px" viewBox="0 0 10 10" enable-background="new 0 0 10 10" xml:space="preserve">
<g>
	<circle fill="#D13F69" cx="4.999" cy="4.999" r="4.999"/>
	<g>
		<path fill="#FFFFFF" d="M4.954,8.371C4.353,6.826,3.529,5.364,3.208,3.717C3.021,2.75,3.703,1.836,4.682,1.641
			C5.579,1.463,6.59,2.104,6.773,3.007c0.058,0.284,0.081,0.619-0.014,0.883C6.213,5.397,5.627,6.89,5.054,8.389
			C5.02,8.383,4.987,8.377,4.954,8.371z M4.977,2.493C4.45,2.492,4.061,2.87,4.059,3.386C4.056,3.893,4.458,4.302,4.963,4.307
			c0.509,0.005,0.906-0.391,0.909-0.906C5.876,2.865,5.511,2.494,4.977,2.493z"/>
		<path fill="#D13F69" d="M5.012,2.493C5.545,2.494,5.91,2.865,5.907,3.401C5.904,3.916,5.507,4.312,4.998,4.307
			c-0.506-0.005-0.907-0.413-0.906-0.92C4.095,2.871,4.484,2.493,5.012,2.493z"/>
	</g>
</g>
</svg>
