<?xml version="1.0" encoding="utf-8"?>
<!-- Generator: Adobe Illustrator 17.0.0, SVG Export Plug-In . SVG Version: 6.00 Build 0)  -->
<!DOCTYPE svg PUBLIC "-//W3C//DTD SVG 1.1//EN" "http://www.w3.org/Graphics/SVG/1.1/DTD/svg11.dtd">
<svg version="1.1" id="Layer_1" xmlns="http://www.w3.org/2000/svg" xmlns:xlink="http://www.w3.org/1999/xlink" x="0px" y="0px"
	 width="215.418px" height="135px" viewBox="0 0 215.418 135" enable-background="new 0 0 215.418 135" xml:space="preserve">
<g>
	<path fill="#3E96D2" d="M106.823,103.853c-0.787-1.578-1.521-3.038-2.245-4.504c-3.685-7.467-7.358-14.939-11.065-22.395
		c-0.264-0.531-0.704-1.019-1.168-1.397c-7.008-5.724-10.365-13.07-9.606-22.137c0.976-11.656,9.87-20.9,21.477-22.491
		c13.41-1.838,25.928,7.444,27.909,20.855c1.393,9.43-1.731,17.233-8.957,23.411c-0.483,0.413-0.932,0.925-1.24,1.479
		c-4.869,8.739-9.712,17.493-14.562,26.243C107.212,103.195,107.048,103.466,106.823,103.853z M93.113,55.648
		c-0.03,7.983,6.371,14.576,14.367,14.546c8.706-0.033,14.506-7.133,14.487-14.437c-0.021-7.929-6.407-14.519-14.182-14.543
		C99.619,41.188,93.143,47.56,93.113,55.648z"/>
</g>
</svg>
