<?xml version="1.0" encoding="utf-8"?>
<!-- Generator: Adobe Illustrator 17.0.0, SVG Export Plug-In . SVG Version: 6.00 Build 0)  -->
<!DOCTYPE svg PUBLIC "-//W3C//DTD SVG 1.1//EN" "http://www.w3.org/Graphics/SVG/1.1/DTD/svg11.dtd">
<svg version="1.1" id="Layer_1" xmlns="http://www.w3.org/2000/svg" xmlns:xlink="http://www.w3.org/1999/xlink" x="0px" y="0px"
	 width="435.649px" height="183.062px" viewBox="0 0 435.649 183.062" enable-background="new 0 0 435.649 183.062"
	 xml:space="preserve">
<g>
	<path fill="#BCE4EA" d="M169.26,61.682c1.967-14.326,6.125-27.717,15.351-39.026c8.842-10.838,19.987-18.301,33.741-21.403
		c7.878-1.777,15.842-1.543,23.788-0.064c10.254,1.909,19.489,6.051,27.591,12.589c7.31,5.899,12.945,13.154,16.789,21.758
		c3.264,7.304,5.134,14.937,5.5,22.94c0.048,1.043,0.392,2.072,0.636,3.289c1.18-0.522,1.883-1.544,2.692-2.387
		c4.819-5.014,10.825-7.533,17.619-8.143c12.257-1.101,22.72,2.945,31.269,11.702c7.331,7.509,10.482,16.451,8.194,26.93
		c-0.379,1.736,0.019,1.73,1.495,1.322c8.77-2.428,17.67-4.012,26.823-3.587c7.173,0.333,13.46,2.436,17.672,8.801
		c4.14,6.256,3.276,12.728,1.02,19.287c-2.24,6.514-6.495,11.446-12.569,15.487c2.785,0.265,5.149,0.651,7.516,0.679
		c4.05,0.048,7.642,1.377,11.183,3.204c5.874,3.03,5.64,12.018,2.054,15.823c-2.008,2.131-4.389,3.54-7.543,4.738
		c4.336,1.214,8.343,0.995,12.165,1.876c5.881,1.356,11.796,2.672,17.011,5.916c3.432,2.135,6.349,4.719,6.391,9.222
		c0.045,4.761-3.274,8.322-8.673,9.417c-2.095,0.425-4.201,0.531-6.335,0.531c-134.969-0.014-269.938-0.013-404.906-0.007
		c-1.629,0-3.232,0.044-4.869,0.386c-3.42,0.715-8.094-2.528-9.535-6.712c-2.594-7.534-1.404-14.595,3.635-20.744
		c7.552-9.216,18.095-12.805,29.333-14.7c5.687-0.959,11.464-1.404,17.209-1.987c1.547-0.157,1.32-1.148,1.323-2.102
		c0.016-4.49-0.12-8.947,1.437-13.325c3.575-10.047,12.783-15.273,22.349-16.106c3.402-0.296,6.789-0.975,10.211-0.045
		c1.005,0.273,1.416-0.35,1.469-1.393c0.368-7.193,1.64-14.229,3.92-21.064c6.709-20.112,19.623-33.943,40.824-38.278
		c14.417-2.947,26.394,1.922,35.022,14.175C168.341,61.076,168.557,61.538,169.26,61.682z M75.052,144.402
		c-1.092,0.355-1.68,0.637-2.296,0.733c-6.352,0.987-12.694,0.742-19.02-0.249c-6.012-0.942-12.015-1.144-17.997,0.193
		c-8.691,1.943-16.439,6.004-23.521,11.212c-3.382,2.487-6.695,5.475-7.709,9.896c-0.759,3.308-1.06,6.685,2.059,9.235
		c1.837,1.502,3.988,1.741,6.226,1.741c25.502-0.001,51.005-0.066,76.507,0.008c98.628,0.286,197.258-0.631,295.885,0.456
		c12.135,0.134,24.272,0.053,36.408-0.001c2.853-0.013,5.702-0.372,8.387-1.452c3.047-1.226,3.327-2.917,1.154-5.311
		c-2.429-2.676-5.372-4.578-8.657-5.88c-9.354-3.708-19.161-5.153-29.161-5.55c-3.086-0.122-6.138-0.698-9.258-0.675
		c1.151-0.589,2.311-0.948,3.452-1.36c5.308-1.914,10.638-3.76,15.324-7.054c1.433-1.007,2.79-2.126,3.75-3.502
		c2.118-3.036,1.553-6.22-2.708-8.672c-4.527-2.606-9.627-2.992-14.669-3.275c-4.205-0.236-8.434-0.048-12.652-0.048
		c0.631-1.006,1.418-1.519,2.191-2.05c5.078-3.491,9.786-7.402,13.495-12.37c6.592-8.828,4.829-16.939-1.819-23.03
		c-5.441-4.985-12.522-5.948-19.511-5.712c-6.404,0.216-12.792,1.316-18.965,3.291c-0.894,0.286-1.629,0.591-2.141,1.453
		c-2.135,3.591-5.443,5.936-9.105,7.58c-8.497,3.815-17.328,6.088-26.808,5.81c-10.441-0.306-19.021-7.048-20.791-17.302
		c-0.857-4.964,0.238-9.318,4.981-12.316c5.41-3.421,11.235-4.555,17.512-4.428c8.458,0.171,14.447,6.585,13.778,14.99
		c-0.223,2.806-1.86,5.331-4.007,5.605c-5.165,0.661-9.586-1.405-14.16-3.945c0.795-0.442,1.154-0.203,1.545-0.113
		c3.331,0.762,6.593,1.909,10.094,1.708c1.81-0.104,3.239-0.918,2.974-2.771c-0.529-3.703-2.33-6.763-5.666-8.745
		c-6.851-4.071-18.744-0.061-22.414,6.553c-1.342,2.419-1.106,6.014,0.647,8.116c2.967,3.56,6.687,6.072,11.203,7.133
		c10.287,2.417,19.96,0.415,29.018-4.68c2.84-1.597,5.516-3.809,6.635-7.011c1.681-4.808,2.337-9.799,1.105-14.878
		c-1.42-5.853-4.378-10.687-9.329-14.229c-8.115-5.806-17.027-8.421-26.976-6.569c-6.018,1.12-11.075,4.255-15.792,8.009
		c-1.185,0.943-1.699,2.242-1.722,3.648c-0.021,1.257-0.34,2.428-0.606,3.615c-2.489,11.141-7.37,20.89-16.426,28.226
		c-12.488,10.116-26.675,13.087-42.129,9.457c-12.91-3.032-23.141-10.399-30.836-21.165c-5.81-8.129-9.129-17.09-6.911-27.185
		c2.562-11.657,9.701-19.376,21.291-22.64c7.434-2.094,15.062-2.085,22.599-0.881c7.066,1.129,13.502,3.928,18.427,9.413
		c2.848,3.172,4.452,6.887,3.732,11.203c-1.442,8.633-6.904,13.873-14.865,16.678c-6.028,2.124-12.236,3.011-18.7,2.542
		c-4.565-0.331-8.879-1.11-12.923-3.293c-2.11-1.139-3.457-2.874-3.748-5.163c-0.533-4.19,3.398-11.054,7.359-13.087
		c7.39-3.793,14.596-2.04,21.688,0.939c0.901,0.378,1.583,1.398,2.224,2.229c0.357,0.463,0.889,1.18,0.258,1.764
		c-0.665,0.616-1.155-0.09-1.673-0.459c-1.943-1.386-4.037-2.54-6.331-3.165c-6.661-1.813-11.986,0.638-16.546,5.394
		c-3.422,3.569-2.886,6.967,1.487,9.23c4.318,2.235,8.988,2.238,13.654,2.064c8.306-0.311,15.219-3.137,19.709-10.685
		c3.999-6.722,3.27-14.11-3.863-18.2c-4.24-2.432-8.844-4.028-13.655-4.48c-11.397-1.069-21.408,2.17-29.182,10.852
		c-8.833,9.864-10.245,22.669-1.751,33.494c5.108,6.509,11.781,10.976,19.356,14.169c9.482,3.997,19.328,5.338,29.407,3.268
		c9.441-1.939,17.516-6.386,23.831-13.968c6.659-7.995,10.221-17.036,10.112-27.401c-0.086-8.107-2.17-15.813-5.709-23.1
		c-4.144-8.532-10.141-15.578-17.557-21.432C253.484,8.328,241.075,5.283,227.65,6.573c-8.281,0.796-16.049,3.688-23.337,7.761
		c-10.12,5.655-18.214,13.377-23.131,23.94c-5.603,12.038-7.298,24.735-5.432,37.941c0.322,2.282,0.816,4.599,0.864,6.964
		c-3.101-7.779-7.141-14.955-12.622-21.207c-7.261-8.284-15.862-13.633-27.572-12.322c-9.278,1.039-16.888,5.279-23.675,11.314
		c-4.883,4.343-8.622,9.583-11.556,15.419c-4.046,8.048-6.455,16.535-6.999,25.536c-0.454,7.509,0.876,14.672,4.445,21.319
		c1.954,3.64,3.203,7.753,6.549,10.524c11.072,9.172,23.995,12.399,37.975,10.754c9.973-1.174,18.717-5.516,25.645-13.13
		c3.471-3.815,5.432-8.273,5.513-13.286c0.157-9.7-5.071-16.745-12.475-22.164c-6.998-5.122-15.072-6.246-23.582-4.913
		c-8.635,1.352-16.345,4.432-22.388,11.037c-4.211,4.603-3.882,10.406,1.016,13.808c3.209,2.229,6.752,2.576,10.483,1.425
		c5.05-1.557,9.205-4.504,12.952-8.129c0.49-0.474,0.954-1.518,1.712-1.054c0.783,0.479,0.328,1.461,0.079,2.236
		c-1.009,3.134-2.768,5.669-5.541,7.554c-5.254,3.57-11.15,4.179-17.169,3.511c-2.909-0.323-5.554-1.706-7.021-4.725
		c-4.335-8.922-1.874-17.106,6.302-23.031c8.454-6.126,18.068-8.325,28.522-7.095c9.475,1.114,17.661,4.673,23.987,11.916
		c6.095,6.978,8.334,15.189,6.94,24.316c-0.959,6.275-4.648,10.785-9.734,14.368c-14.292,10.067-29.581,15.616-47.204,10.455
		c-8.961-2.624-16.388-7.618-22.222-14.963c-4.79-6.031-8.208-12.761-10.496-20.088c-0.328-1.05-0.656-2.107-1.93-2.269
		c-4.872-0.62-9.796-1.102-14.579,0.28c-6.565,1.897-11.109,6.543-14.474,12.18c-5.464,9.151,0.247,16.921,7.801,19.568
		C68.282,143.369,71.369,143.995,75.052,144.402z"/>
	<path fill="#FFFFFF" d="M75.052,144.402c-3.683-0.407-6.77-1.033-9.755-2.079c-7.554-2.647-13.264-10.417-7.801-19.568
		c3.365-5.637,7.91-10.283,14.474-12.18c4.783-1.382,9.707-0.9,14.579-0.28c1.273,0.162,1.602,1.219,1.93,2.269
		c2.288,7.327,5.706,14.057,10.496,20.088c5.834,7.345,13.261,12.338,22.222,14.963c17.623,5.161,32.911-0.389,47.204-10.455
		c5.086-3.583,8.775-8.092,9.734-14.368c1.395-9.126-0.845-17.338-6.94-24.316c-6.327-7.243-14.513-10.801-23.987-11.916
		c-10.454-1.23-20.068,0.97-28.522,7.095c-8.176,5.925-10.637,14.109-6.302,23.031c1.467,3.019,4.112,4.403,7.021,4.725
		c6.02,0.668,11.915,0.059,17.169-3.511c2.773-1.884,4.532-4.42,5.541-7.554c0.25-0.775,0.704-1.756-0.079-2.236
		c-0.758-0.464-1.222,0.58-1.712,1.054c-3.747,3.626-7.902,6.572-12.952,8.129c-3.731,1.151-7.273,0.804-10.483-1.425
		c-4.898-3.401-5.227-9.205-1.016-13.808c6.043-6.606,13.752-9.685,22.388-11.037c8.51-1.333,16.583-0.209,23.582,4.913
		c7.405,5.419,12.632,12.464,12.475,22.164c-0.081,5.012-2.042,9.471-5.513,13.286c-6.928,7.614-15.671,11.956-25.645,13.13
		c-13.981,1.645-26.904-1.582-37.975-10.754c-3.346-2.772-4.595-6.885-6.549-10.524c-3.569-6.647-4.899-13.81-4.445-21.319
		c0.544-9.002,2.953-17.488,6.999-25.536c2.934-5.835,6.672-11.076,11.556-15.419c6.787-6.035,14.397-10.276,23.675-11.314
		c11.71-1.311,20.31,4.038,27.572,12.322c5.48,6.252,9.521,13.429,12.622,21.207c-0.048-2.365-0.541-4.682-0.864-6.964
		c-1.865-13.207-0.171-25.903,5.432-37.941c4.917-10.564,13.011-18.285,23.131-23.94c7.287-4.072,15.056-6.965,23.337-7.761
		c13.424-1.29,25.834,1.755,36.601,10.255c7.416,5.854,13.412,12.899,17.557,21.432c3.539,7.287,5.624,14.992,5.709,23.1
		c0.109,10.365-3.453,19.405-10.112,27.401c-6.315,7.582-14.39,12.029-23.831,13.968c-10.08,2.07-19.925,0.729-29.407-3.268
		c-7.575-3.193-14.248-7.66-19.356-14.169c-8.494-10.825-7.082-23.629,1.751-33.494c7.775-8.682,17.786-11.921,29.182-10.852
		c4.811,0.451,9.415,2.048,13.655,4.48c7.133,4.09,7.862,11.478,3.863,18.2c-4.491,7.548-11.403,10.374-19.709,10.685
		c-4.666,0.174-9.336,0.171-13.654-2.064c-4.373-2.263-4.909-5.661-1.487-9.23c4.56-4.756,9.885-7.206,16.546-5.394
		c2.294,0.624,4.388,1.779,6.331,3.165c0.518,0.369,1.008,1.075,1.673,0.459c0.631-0.584,0.099-1.301-0.258-1.764
		c-0.641-0.832-1.323-1.851-2.224-2.229c-7.092-2.979-14.298-4.733-21.688-0.939c-3.961,2.033-7.892,8.897-7.359,13.087
		c0.291,2.29,1.638,4.025,3.748,5.163c4.044,2.183,8.358,2.962,12.923,3.293c6.464,0.469,12.672-0.417,18.7-2.542
		c7.961-2.806,13.423-8.045,14.865-16.678c0.721-4.315-0.883-8.031-3.732-11.203c-4.925-5.484-11.361-8.284-18.427-9.413
		c-7.537-1.204-15.165-1.213-22.599,0.881c-11.59,3.265-18.729,10.983-21.291,22.64c-2.218,10.094,1.101,19.056,6.911,27.185
		c7.695,10.766,17.926,18.133,30.836,21.165c15.454,3.63,29.641,0.659,42.129-9.457c9.056-7.335,13.936-17.085,16.426-28.226
		c0.265-1.186,0.585-2.358,0.606-3.615c0.023-1.406,0.537-2.705,1.722-3.648c4.717-3.754,9.775-6.889,15.792-8.009
		c9.949-1.852,18.861,0.763,26.976,6.569c4.951,3.542,7.909,8.377,9.329,14.229c1.232,5.079,0.576,10.07-1.105,14.878
		c-1.12,3.202-3.795,5.414-6.635,7.011c-9.058,5.094-18.731,7.097-29.018,4.68c-4.516-1.061-8.235-3.573-11.203-7.133
		c-1.752-2.103-1.989-5.697-0.647-8.116c3.67-6.614,15.563-10.623,22.414-6.553c3.337,1.983,5.137,5.042,5.666,8.745
		c0.265,1.853-1.164,2.667-2.974,2.771c-3.501,0.202-6.763-0.946-10.094-1.708c-0.391-0.089-0.75-0.329-1.545,0.113
		c4.574,2.54,8.995,4.606,14.16,3.945c2.147-0.275,3.784-2.799,4.007-5.605c0.669-8.406-5.32-14.819-13.778-14.99
		c-6.276-0.127-12.101,1.007-17.512,4.428c-4.743,2.998-5.838,7.352-4.981,12.316c1.77,10.254,10.351,16.996,20.791,17.302
		c9.479,0.278,18.311-1.995,26.808-5.81c3.662-1.644,6.971-3.989,9.105-7.58c0.512-0.862,1.248-1.167,2.141-1.453
		c6.173-1.975,12.561-3.075,18.965-3.291c6.989-0.236,14.07,0.727,19.511,5.712c6.647,6.091,8.41,14.202,1.819,23.03
		c-3.71,4.968-8.417,8.88-13.495,12.37c-0.773,0.532-1.56,1.044-2.191,2.05c4.218,0,8.447-0.188,12.652,0.048
		c5.042,0.283,10.143,0.67,14.669,3.275c4.261,2.453,4.826,5.636,2.708,8.672c-0.96,1.376-2.317,2.495-3.75,3.502
		c-4.687,3.295-10.017,5.14-15.324,7.054c-1.141,0.412-2.301,0.771-3.452,1.36c3.12-0.024,6.172,0.552,9.258,0.675
		c10.001,0.397,19.808,1.842,29.161,5.55c3.285,1.302,6.228,3.204,8.657,5.88c2.173,2.395,1.893,4.086-1.154,5.311
		c-2.685,1.08-5.534,1.439-8.387,1.452c-12.136,0.054-24.274,0.135-36.408,0.001c-98.627-1.087-197.257-0.17-295.885-0.456
		c-25.502-0.074-51.005-0.009-76.507-0.008c-2.238,0-4.389-0.239-6.226-1.741c-3.119-2.55-2.818-5.926-2.059-9.235
		c1.014-4.421,4.327-7.409,7.709-9.896c7.083-5.208,14.83-9.269,23.521-11.212c5.981-1.337,11.984-1.135,17.997-0.193
		c6.326,0.991,12.668,1.236,19.02,0.249C73.372,145.039,73.959,144.757,75.052,144.402z"/>
</g>
</svg>
