<?xml version="1.0" encoding="utf-8"?>
<!-- Generator: Adobe Illustrator 17.0.0, SVG Export Plug-In . SVG Version: 6.00 Build 0)  -->
<!DOCTYPE svg PUBLIC "-//W3C//DTD SVG 1.1//EN" "http://www.w3.org/Graphics/SVG/1.1/DTD/svg11.dtd">
<svg version="1.1" id="Layer_1" xmlns="http://www.w3.org/2000/svg" xmlns:xlink="http://www.w3.org/1999/xlink" x="0px" y="0px"
	 width="86.787px" height="126.465px" viewBox="0 0 86.787 126.465" enable-background="new 0 0 86.787 126.465"
	 xml:space="preserve">
<g>
	<path fill="#FFFFFF" d="M52.517,0.729c-2.654,21.967-12.054,41.826-19.605,62.252c-0.365,0.986-2.687,2.073-3.778,1.806
		c-2.907-0.71-5.64-2.134-9.161-3.567C29.442,39.987,36.876,18.426,50.726,0C51.323,0.243,51.92,0.486,52.517,0.729z"/>
	<path fill="#FFFFFF" d="M38.165,67.502c1.189-3.727,2.24-7.263,3.445-10.745c2.275-6.574,13.675-10.254,21.274-6.925
		c17.564,7.695,27.217,28.591,22.865,48.39c-6.517,29.646-32.768,32.345-51.677,24.418c-5.548-2.326-10.552-6.012-15.646-9.319
		c-1.296-0.842-3.093-3.187-2.746-3.868c1.15-2.262,2.788-5.007,4.932-5.897c6.65-2.759,8.114-4.946,6.317-12.023
		c-1.057-4.162,3.121-8.949,7.375-8.613c3.64,0.288,7.361,0.058,9.132-3.785c1.654-3.592-0.241-6.494-2.755-9.026
		C39.784,69.207,38.914,68.279,38.165,67.502z M70.311,85.648c-3.885-1.979-8.609-0.356-10.566,3.63
		c-2.101,4.279-0.573,9.136,3.486,11.084c3.881,1.863,8.631,0.202,10.643-3.721C76.037,92.423,74.539,87.803,70.311,85.648z
		 M68.207,70.557c1.963-4.153,0.432-8.36-3.809-10.461c-4.202-2.082-8.453-0.652-10.504,3.532c-2.143,4.372-0.565,8.906,3.78,10.863
		C61.716,76.311,66.296,74.6,68.207,70.557z M52.013,113.393c1.989-4.028,0.47-8.664-3.501-10.685
		c-4.281-2.178-8.879-0.602-10.912,3.74c-1.912,4.085-0.297,8.59,3.789,10.57C45.46,118.991,50.017,117.436,52.013,113.393z"/>
	<path fill="#FFFFFF" d="M1.346,115.527c-2.755-8.118-1.175-15.415,3.769-21.884c1.165-1.525,3.952-2.612,5.938-2.531
		c3.445,0.14,3.983,3.18,3.943,6.087c-0.069,4.99-2.385,8.935-6.011,12.142C6.589,111.46,4.014,113.378,1.346,115.527z"/>
	<path fill="#FFFFFF" d="M18.485,64.255c4.138,1.684,7.366,2.997,11.434,4.652c-4.191,6.87-8.174,13.508-12.34,20.029
		c-0.349,0.546-2.127,0.693-2.885,0.313c-0.723-0.362-1.52-1.769-1.36-2.52C14.896,79.406,16.651,72.124,18.485,64.255z"/>
</g>
</svg>
