<?xml version="1.0" encoding="utf-8"?>
<!-- Generator: Adobe Illustrator 17.0.0, SVG Export Plug-In . SVG Version: 6.00 Build 0)  -->
<!DOCTYPE svg PUBLIC "-//W3C//DTD SVG 1.1//EN" "http://www.w3.org/Graphics/SVG/1.1/DTD/svg11.dtd">
<svg version="1.1" id="Layer_1" xmlns="http://www.w3.org/2000/svg" xmlns:xlink="http://www.w3.org/1999/xlink" x="0px" y="0px"
	 width="215.418px" height="135px" viewBox="0 0 215.418 135" enable-background="new 0 0 215.418 135" xml:space="preserve">
<g>
	<g>
		<path fill="#3D96D2" d="M113.466,32.429c-1.48,12.285-6.723,23.392-10.935,34.816c-0.203,0.551-1.499,1.159-2.107,1.01
			c-1.622-0.397-3.146-1.194-5.11-1.995c5.282-11.876,9.428-23.934,17.153-34.239C112.8,32.158,113.133,32.293,113.466,32.429z"/>
		<path fill="#3D96D2" d="M105.461,69.774c0.663-2.085,1.249-4.062,1.921-6.009c1.269-3.677,7.627-5.735,11.866-3.873
			c9.797,4.304,15.181,15.99,12.753,27.063c-3.635,16.58-18.277,18.09-28.824,13.656c-3.095-1.301-5.886-3.362-8.727-5.212
			c-0.723-0.471-1.725-1.782-1.532-2.163c0.642-1.265,1.555-2.801,2.751-3.298c3.709-1.543,4.526-2.766,3.523-6.724
			c-0.59-2.328,1.741-5.005,4.114-4.817c2.031,0.161,4.106,0.032,5.093-2.117c0.923-2.009-0.135-3.632-1.537-5.048
			C106.364,70.727,105.879,70.209,105.461,69.774z M123.391,79.923c-2.167-1.107-4.802-0.199-5.893,2.03
			c-1.172,2.393-0.32,5.109,1.944,6.199c2.165,1.042,4.814,0.113,5.936-2.081C126.585,83.712,125.749,81.128,123.391,79.923z
			 M122.217,71.483c1.095-2.323,0.241-4.676-2.124-5.851c-2.344-1.164-4.715-0.365-5.859,1.975
			c-1.195,2.445-0.315,4.981,2.109,6.075C118.597,74.7,121.151,73.744,122.217,71.483z M113.185,95.44
			c1.109-2.253,0.262-4.846-1.953-5.976c-2.388-1.218-4.953-0.337-6.086,2.092c-1.067,2.285-0.166,4.804,2.114,5.911
			C109.53,98.57,112.072,97.701,113.185,95.44z"/>
		<path fill="#3D96D2" d="M84.925,96.633c-1.537-4.54-0.655-8.621,2.102-12.239c0.65-0.853,2.205-1.461,3.312-1.416
			c1.921,0.078,2.222,1.778,2.199,3.404c-0.039,2.791-1.33,4.997-3.353,6.791C87.849,94.358,86.413,95.431,84.925,96.633z"/>
		<path fill="#3D96D2" d="M94.484,67.958c2.308,0.942,4.109,1.676,6.378,2.602c-2.338,3.842-4.559,7.555-6.883,11.202
			c-0.194,0.305-1.187,0.387-1.609,0.175c-0.403-0.202-0.848-0.99-0.758-1.409C92.482,76.432,93.461,72.359,94.484,67.958z"/>
	</g>
</g>
</svg>
