<?xml version="1.0" encoding="utf-8"?>
<!-- Generator: Adobe Illustrator 17.0.0, SVG Export Plug-In . SVG Version: 6.00 Build 0)  -->
<!DOCTYPE svg PUBLIC "-//W3C//DTD SVG 1.1//EN" "http://www.w3.org/Graphics/SVG/1.1/DTD/svg11.dtd">
<svg version="1.1" id="Layer_1" xmlns="http://www.w3.org/2000/svg" xmlns:xlink="http://www.w3.org/1999/xlink" x="0px" y="0px"
	 width="63.288px" height="92.693px" viewBox="0 0 63.288 92.693" enable-background="new 0 0 63.288 92.693" xml:space="preserve">
<path fill="#FFFFFF" d="M30.732,92.693c-0.999-1.999-1.933-3.85-2.852-5.707c-4.681-9.461-9.348-18.929-14.058-28.375
	c-0.335-0.672-0.895-1.291-1.484-1.771C3.435,49.586-0.83,40.279,0.134,28.791C1.373,14.022,12.673,2.31,27.419,0.294
	c17.037-2.329,32.942,9.432,35.458,26.425c1.769,11.948-2.199,21.835-11.379,29.663c-0.614,0.524-1.184,1.172-1.576,1.873
	C43.736,69.329,37.583,80.42,31.421,91.507C31.226,91.858,31.017,92.202,30.732,92.693z M13.312,31.614
	c-0.038,10.115,8.095,18.469,18.253,18.431c11.061-0.042,18.43-9.038,18.406-18.292c-0.026-10.046-8.14-18.396-18.018-18.427
	C21.579,13.293,13.351,21.366,13.312,31.614z"/>
</svg>
