<?xml version="1.0" encoding="utf-8"?>
<!-- Generator: Adobe Illustrator 17.0.0, SVG Export Plug-In . SVG Version: 6.00 Build 0)  -->
<!DOCTYPE svg PUBLIC "-//W3C//DTD SVG 1.1//EN" "http://www.w3.org/Graphics/SVG/1.1/DTD/svg11.dtd">
<svg version="1.1" id="Layer_1" xmlns="http://www.w3.org/2000/svg" xmlns:xlink="http://www.w3.org/1999/xlink" x="0px" y="0px"
	 width="150.25px" height="150.25px" viewBox="0 0 150.25 150.25" enable-background="new 0 0 150.25 150.25" xml:space="preserve">
<g>
	
		<circle opacity="0.8" fill="#231F20" stroke="#231F20" stroke-width="0.25" stroke-miterlimit="10" cx="75.125" cy="75.125" r="75"/>
	<path fill="#FFD364" d="M74.048,129.833c-1.18-2.36-2.281-4.544-3.366-6.737c-5.526-11.168-11.035-22.344-16.595-33.495
		c-0.396-0.794-1.056-1.524-1.751-2.09C41.826,78.95,36.791,67.963,37.929,54.402c1.463-17.434,14.802-31.259,32.209-33.639
		c20.111-2.75,38.885,11.134,41.855,31.192c2.089,14.104-2.596,25.775-13.433,35.015c-0.725,0.618-1.398,1.384-1.86,2.212
		c-7.302,13.071-14.565,26.164-21.839,39.251C74.631,128.848,74.385,129.255,74.048,129.833z M53.486,57.734
		c-0.044,11.94,9.555,21.801,21.547,21.756c13.057-0.049,21.755-10.668,21.727-21.593C96.728,46.038,87.15,36.182,75.49,36.146
		C63.244,36.108,53.531,45.637,53.486,57.734z"/>
</g>
</svg>
