<?xml version="1.0" encoding="utf-8"?>
<!-- Generator: Adobe Illustrator 17.0.0, SVG Export Plug-In . SVG Version: 6.00 Build 0)  -->
<!DOCTYPE svg PUBLIC "-//W3C//DTD SVG 1.1//EN" "http://www.w3.org/Graphics/SVG/1.1/DTD/svg11.dtd">
<svg version="1.1" id="Layer_1" xmlns="http://www.w3.org/2000/svg" xmlns:xlink="http://www.w3.org/1999/xlink" x="0px" y="0px"
	 width="450.024px" height="189.102px" viewBox="0 0 450.024 189.102" enable-background="new 0 0 450.024 189.102"
	 xml:space="preserve">
<g>
	<path fill="#FFD364" d="M276.414,62.686c8.913-12.658,21.285-17.687,36.177-14.643c21.901,4.477,35.24,18.765,42.171,39.541
		c2.356,7.061,3.67,14.329,4.05,21.759c0.055,1.077,0.48,1.721,1.518,1.438c3.535-0.961,7.034-0.26,10.548,0.046
		c9.882,0.861,19.394,6.259,23.087,16.638c1.609,4.522,1.468,9.126,1.485,13.764c0.004,0.985-0.231,2.009,1.367,2.171
		c5.935,0.602,11.903,1.062,17.777,2.052c11.608,1.957,22.499,5.665,30.3,15.185c5.205,6.352,6.435,13.646,3.755,21.428
		c-1.488,4.322-6.316,7.672-9.849,6.934c-1.691-0.353-3.347-0.399-5.029-0.399c-139.422-0.006-278.844-0.007-418.267,0.007
		c-2.204,0-4.38-0.11-6.544-0.549c-5.577-1.131-9.005-4.809-8.959-9.727c0.044-4.652,3.056-7.321,6.602-9.527
		c5.387-3.352,11.497-4.71,17.572-6.111c3.948-0.91,8.087-0.684,12.566-1.938c-3.258-1.238-5.718-2.693-7.792-4.894
		c-3.704-3.931-3.946-13.214,2.122-16.345c3.658-1.887,7.369-3.26,11.552-3.309c2.446-0.029,4.887-0.427,7.764-0.701
		c-6.274-4.174-10.67-9.269-12.984-15.998c-2.33-6.776-3.222-13.462,1.054-19.924c4.351-6.575,10.845-8.747,18.255-9.091
		c9.456-0.439,18.649,1.197,27.708,3.705c1.525,0.422,1.936,0.428,1.544-1.365c-2.364-10.825,0.891-20.062,8.464-27.819
		c8.832-9.045,19.639-13.225,32.301-12.088c7.018,0.63,13.223,3.232,18.2,8.412c0.836,0.87,1.562,1.926,2.781,2.466
		c0.251-1.257,0.607-2.32,0.657-3.398c0.378-8.267,2.31-16.152,5.682-23.697c3.972-8.888,9.792-16.382,17.343-22.476
		c8.37-6.754,17.909-11.032,28.501-13.005c8.208-1.528,16.434-1.77,24.572,0.066c14.207,3.205,25.721,10.913,34.854,22.109
		c9.53,11.682,13.825,25.515,15.857,40.313C275.905,63.568,276.128,63.092,276.414,62.686z M382.572,147.019
		c7.803-2.734,13.702-10.76,8.058-20.214c-3.476-5.823-8.171-10.622-14.952-12.582c-4.941-1.428-10.027-0.93-15.06-0.29
		c-1.315,0.167-1.655,1.26-1.993,2.344c-2.364,7.568-5.894,14.521-10.842,20.751c-6.026,7.587-13.698,12.745-22.955,15.456
		c-18.204,5.331-33.997-0.401-48.761-10.8c-5.254-3.701-9.065-8.359-10.055-14.842c-1.441-9.428,0.873-17.91,7.169-25.118
		c6.535-7.482,14.992-11.158,24.779-12.309c10.799-1.27,20.73,1.002,29.463,7.33c8.446,6.12,10.988,14.574,6.51,23.791
		c-1.515,3.119-4.247,4.548-7.252,4.881c-6.218,0.69-12.309,0.06-17.736-3.627c-2.865-1.947-4.681-4.566-5.724-7.803
		c-0.258-0.8-0.728-1.814,0.082-2.31c0.783-0.479,1.262,0.599,1.769,1.089c3.871,3.745,8.163,6.789,13.379,8.398
		c3.854,1.189,7.513,0.83,10.829-1.472c5.06-3.513,5.399-9.509,1.05-14.263c-6.242-6.824-14.206-10.004-23.126-11.401
		c-8.79-1.377-17.131-0.215-24.36,5.075c-7.649,5.598-13.049,12.875-12.887,22.895c0.084,5.178,2.109,9.783,5.695,13.724
		c7.156,7.865,16.188,12.35,26.491,13.563c14.442,1.7,27.791-1.635,39.228-11.109c3.456-2.863,4.746-7.112,6.765-10.872
		c3.687-6.866,5.061-14.266,4.592-22.022c-0.562-9.299-3.05-18.065-7.23-26.379c-3.031-6.028-6.893-11.441-11.937-15.927
		c-7.011-6.234-14.872-10.615-24.456-11.688c-12.096-1.354-20.981,4.171-28.481,12.728c-5.661,6.459-9.835,13.872-13.038,21.907
		c0.049-2.443,0.559-4.836,0.892-7.194c1.927-13.642,0.176-26.758-5.612-39.193c-5.079-10.912-13.441-18.888-23.894-24.73
		c-7.528-4.207-15.553-7.195-24.107-8.017c-13.867-1.333-26.686,1.813-37.808,10.593c-7.661,6.047-13.855,13.325-18.136,22.139
		c-3.656,7.528-5.809,15.487-5.898,23.862c-0.113,10.707,3.567,20.045,10.445,28.305c6.523,7.832,14.865,12.426,24.617,14.429
		c10.412,2.138,20.583,0.753,30.377-3.376c7.825-3.298,14.718-7.913,19.995-14.637c8.774-11.182,7.316-24.409-1.809-34.599
		c-8.031-8.968-18.372-12.314-30.145-11.21c-4.97,0.466-9.726,2.116-14.106,4.627c-7.368,4.225-8.122,11.857-3.991,18.8
		c4.639,7.797,11.779,10.716,20.36,11.037c4.82,0.18,9.644,0.177,14.104-2.132c4.517-2.338,5.071-5.848,1.536-9.535
		c-4.711-4.913-10.211-7.444-17.092-5.572c-2.369,0.645-4.532,1.837-6.54,3.269c-0.535,0.381-1.041,1.11-1.728,0.474
		c-0.651-0.603-0.102-1.344,0.267-1.822c0.662-0.859,1.367-1.912,2.297-2.303c7.326-3.077,14.769-4.889,22.403-0.97
		c4.092,2.1,8.152,9.191,7.602,13.519c-0.301,2.365-1.692,4.157-3.872,5.334c-4.178,2.255-8.634,3.059-13.349,3.401
		c-6.678,0.484-13.09-0.431-19.318-2.626c-8.224-2.898-13.866-8.31-15.355-17.229c-0.745-4.458,0.912-8.296,3.855-11.572
		c5.088-5.665,11.736-8.557,19.035-9.723c7.786-1.244,15.665-1.253,23.345,0.91c11.972,3.372,19.347,11.345,21.993,23.387
		c2.292,10.428-1.137,19.685-7.139,28.082c-7.949,11.121-18.517,18.731-31.853,21.864c-15.964,3.75-30.619,0.681-43.519-9.769
		c-9.354-7.577-14.396-17.649-16.968-29.157c-0.274-1.226-0.604-2.436-0.626-3.734c-0.024-1.453-0.555-2.794-1.779-3.769
		c-4.873-3.878-10.097-7.116-16.313-8.273c-10.277-1.913-19.483,0.788-27.866,6.786c-5.114,3.659-8.17,8.653-9.637,14.699
		c-1.273,5.246-0.595,10.402,1.141,15.369c1.156,3.308,3.921,5.592,6.854,7.242c9.357,5.263,19.349,7.331,29.975,4.834
		c4.665-1.096,8.507-3.691,11.572-7.369c1.81-2.172,2.054-5.885,0.668-8.384c-3.791-6.832-16.077-10.974-23.153-6.769
		c-3.447,2.048-5.306,5.209-5.853,9.034c-0.274,1.914,1.202,2.755,3.073,2.862c3.616,0.208,6.986-0.977,10.427-1.764
		c0.404-0.092,0.775-0.339,1.596,0.117c-4.725,2.624-9.292,4.758-14.627,4.075c-2.218-0.284-3.909-2.892-4.139-5.79
		c-0.691-8.683,5.495-15.308,14.233-15.485c6.483-0.131,12.501,1.041,18.089,4.574c4.899,3.097,6.031,7.595,5.145,12.723
		c-1.829,10.592-10.692,17.557-21.477,17.873c-9.792,0.287-18.915-2.061-27.692-6.002c-3.783-1.699-7.201-4.12-9.406-7.83
		c-0.529-0.891-1.289-1.206-2.212-1.501c-6.376-2.04-12.975-3.177-19.59-3.4c-7.22-0.243-14.534,0.751-20.155,5.901
		c-6.867,6.292-8.688,14.671-1.879,23.79c3.832,5.132,8.695,9.173,13.941,12.778c0.799,0.549,1.612,1.078,2.263,2.118
		c-4.357,0-8.725-0.194-13.069,0.05c-5.208,0.293-10.477,0.692-15.153,3.383c-4.401,2.534-4.986,5.822-2.797,8.958
		c0.992,1.421,2.393,2.577,3.874,3.617c4.841,3.403,10.347,5.31,15.83,7.287c1.179,0.425,2.377,0.797,3.566,1.405
		c-3.223-0.024-6.376,0.57-9.564,0.697c-10.331,0.41-20.461,1.902-30.124,5.733c-3.393,1.345-6.433,3.31-8.942,6.074
		c-2.245,2.474-1.956,4.22,1.192,5.486c2.774,1.116,5.717,1.487,8.664,1.5c12.536,0.055,25.075,0.139,37.61,0.001
		c101.881-1.123,203.765-0.176,305.647-0.471c26.344-0.076,52.688-0.01,79.032-0.008c2.312,0,4.534-0.247,6.432-1.799
		c3.222-2.634,2.911-6.122,2.127-9.539c-1.047-4.566-4.47-7.654-7.963-10.223c-7.316-5.38-15.32-9.575-24.298-11.581
		c-6.179-1.381-12.38-1.173-18.59-0.2c-6.535,1.024-13.086,1.277-19.647,0.257c-0.637-0.099-1.243-0.39-2.372-0.757
		C376.3,148.746,379.489,148.099,382.572,147.019z"/>
	<path fill="#FFFFFF" d="M372.496,149.166c3.805-0.421,6.993-1.067,10.077-2.147c7.803-2.734,13.702-10.76,8.058-20.214
		c-3.476-5.823-8.171-10.622-14.952-12.582c-4.941-1.428-10.027-0.93-15.06-0.29c-1.315,0.167-1.655,1.26-1.993,2.344
		c-2.364,7.568-5.894,14.521-10.842,20.751c-6.026,7.587-13.698,12.745-22.955,15.456c-18.204,5.331-33.997-0.401-48.761-10.8
		c-5.254-3.701-9.065-8.359-10.055-14.842c-1.441-9.428,0.873-17.91,7.169-25.118c6.535-7.482,14.992-11.158,24.779-12.309
		c10.799-1.27,20.73,1.002,29.463,7.33c8.446,6.12,10.988,14.574,6.51,23.791c-1.515,3.119-4.247,4.548-7.252,4.881
		c-6.218,0.69-12.309,0.06-17.736-3.627c-2.865-1.947-4.681-4.566-5.724-7.803c-0.258-0.8-0.728-1.814,0.082-2.31
		c0.783-0.479,1.262,0.599,1.769,1.089c3.871,3.745,8.163,6.789,13.379,8.398c3.854,1.189,7.513,0.83,10.829-1.472
		c5.06-3.513,5.399-9.509,1.05-14.263c-6.242-6.824-14.206-10.004-23.126-11.401c-8.79-1.377-17.131-0.215-24.36,5.075
		c-7.649,5.598-13.049,12.875-12.887,22.895c0.084,5.178,2.109,9.783,5.695,13.724c7.156,7.865,16.188,12.35,26.491,13.563
		c14.442,1.7,27.791-1.635,39.228-11.109c3.456-2.863,4.746-7.112,6.765-10.872c3.687-6.866,5.061-14.266,4.592-22.022
		c-0.562-9.299-3.05-18.065-7.23-26.379c-3.031-6.028-6.893-11.441-11.937-15.927c-7.011-6.234-14.872-10.615-24.456-11.688
		c-12.096-1.354-20.981,4.171-28.481,12.728c-5.661,6.459-9.835,13.872-13.038,21.907c0.049-2.443,0.559-4.836,0.892-7.194
		c1.927-13.642,0.176-26.758-5.612-39.193c-5.079-10.912-13.441-18.888-23.894-24.73c-7.528-4.207-15.553-7.195-24.107-8.017
		c-13.867-1.333-26.686,1.813-37.808,10.593c-7.661,6.047-13.855,13.325-18.136,22.139c-3.656,7.528-5.809,15.487-5.898,23.862
		c-0.113,10.707,3.567,20.045,10.445,28.305c6.523,7.832,14.865,12.426,24.617,14.429c10.412,2.138,20.583,0.753,30.377-3.376
		c7.825-3.298,14.718-7.913,19.995-14.637c8.774-11.182,7.316-24.409-1.809-34.599c-8.031-8.968-18.372-12.314-30.145-11.21
		c-4.97,0.466-9.726,2.116-14.106,4.627c-7.368,4.225-8.122,11.857-3.991,18.8c4.639,7.797,11.779,10.716,20.36,11.037
		c4.82,0.18,9.644,0.177,14.104-2.132c4.517-2.338,5.071-5.848,1.536-9.535c-4.711-4.913-10.211-7.444-17.092-5.572
		c-2.369,0.645-4.532,1.837-6.54,3.269c-0.535,0.381-1.041,1.11-1.728,0.474c-0.651-0.603-0.102-1.344,0.267-1.822
		c0.662-0.859,1.367-1.912,2.297-2.303c7.326-3.077,14.769-4.889,22.403-0.97c4.092,2.1,8.152,9.191,7.602,13.519
		c-0.301,2.365-1.692,4.157-3.872,5.334c-4.178,2.255-8.634,3.059-13.349,3.401c-6.678,0.484-13.09-0.431-19.318-2.626
		c-8.224-2.898-13.866-8.31-15.355-17.229c-0.745-4.458,0.912-8.296,3.855-11.572c5.088-5.665,11.736-8.557,19.035-9.723
		c7.786-1.244,15.665-1.253,23.345,0.91c11.972,3.372,19.347,11.345,21.993,23.387c2.292,10.428-1.137,19.685-7.139,28.082
		c-7.949,11.121-18.517,18.731-31.853,21.864c-15.964,3.75-30.619,0.681-43.519-9.769c-9.354-7.577-14.396-17.649-16.968-29.157
		c-0.274-1.226-0.604-2.436-0.626-3.734c-0.024-1.453-0.555-2.794-1.779-3.769c-4.873-3.878-10.097-7.116-16.313-8.273
		c-10.277-1.913-19.483,0.788-27.866,6.786c-5.114,3.659-8.17,8.653-9.637,14.699c-1.273,5.246-0.595,10.402,1.141,15.369
		c1.156,3.308,3.921,5.592,6.854,7.242c9.357,5.263,19.349,7.331,29.975,4.834c4.665-1.096,8.507-3.691,11.572-7.369
		c1.81-2.172,2.054-5.885,0.668-8.384c-3.791-6.832-16.077-10.974-23.153-6.769c-3.447,2.048-5.306,5.209-5.853,9.034
		c-0.274,1.914,1.202,2.755,3.073,2.862c3.616,0.208,6.986-0.977,10.427-1.764c0.404-0.092,0.775-0.339,1.596,0.117
		c-4.725,2.624-9.292,4.758-14.627,4.075c-2.218-0.284-3.909-2.892-4.139-5.79c-0.691-8.683,5.495-15.308,14.233-15.485
		c6.483-0.131,12.501,1.041,18.089,4.574c4.899,3.097,6.031,7.595,5.145,12.723c-1.829,10.592-10.692,17.557-21.477,17.873
		c-9.792,0.287-18.915-2.061-27.692-6.002c-3.783-1.699-7.201-4.12-9.406-7.83c-0.529-0.891-1.289-1.206-2.212-1.501
		c-6.376-2.04-12.975-3.177-19.59-3.4c-7.22-0.243-14.534,0.751-20.155,5.901c-6.867,6.292-8.688,14.671-1.879,23.79
		c3.832,5.132,8.695,9.173,13.941,12.778c0.799,0.549,1.612,1.078,2.263,2.118c-4.357,0-8.725-0.194-13.069,0.05
		c-5.208,0.293-10.477,0.692-15.153,3.383c-4.401,2.534-4.986,5.822-2.797,8.958c0.992,1.421,2.393,2.577,3.874,3.617
		c4.841,3.403,10.347,5.31,15.83,7.287c1.179,0.425,2.377,0.797,3.566,1.405c-3.223-0.024-6.376,0.57-9.564,0.697
		c-10.331,0.41-20.461,1.902-30.124,5.733c-3.393,1.345-6.433,3.31-8.942,6.074c-2.245,2.474-1.956,4.22,1.192,5.486
		c2.774,1.116,5.717,1.487,8.664,1.5c12.536,0.055,25.075,0.139,37.61,0.001c101.881-1.123,203.765-0.176,305.647-0.471
		c26.344-0.076,52.688-0.01,79.032-0.008c2.312,0,4.534-0.247,6.432-1.799c3.222-2.634,2.911-6.122,2.127-9.539
		c-1.047-4.566-4.47-7.654-7.963-10.223c-7.316-5.38-15.32-9.575-24.298-11.581c-6.179-1.381-12.38-1.173-18.59-0.2
		c-6.535,1.024-13.086,1.277-19.647,0.257C374.231,149.824,373.624,149.533,372.496,149.166z"/>
</g>
</svg>
